<?xml version="1.0" encoding="UTF-8" standalone="no"?>
<svg
   xmlns="http://www.w3.org/2000/svg"
   width="888.86676"
   height="600"
   id="svg2"
   version="1.1">

  <g
     id="layer1"
     transform="translate(602.5608,-650) scale(1.2, 1.2)">
    <path
       style="color:#335;fill:none;stroke:#335;stroke-width:25;stroke-linecap:round;stroke-linejoin:round;stroke-miterlimit:4;stroke-opacity:1;stroke-dasharray:none;stroke-dashoffset:0;marker:none;visibility:visible;display:inline;overflow:visible;enable-background:accumulate"
       d="m -183.5,265.75 c -14.29659,0.22999 -0.91771,44.57088 17,63.15625 l -319.5625,0 c -19.62989,0 -35.4375,47.39148 -35.4375,106.28125 l 0,94.875 c 0,58.88977 15.80761,106.3125 35.4375,106.3125 l 319.5625,0 c -19.40201,20.12942 -33.46618,70.44502 -12.84375,62.25 16.43871,-6.53248 38.01406,-28.67339 39.1875,-49.75 0.20539,-3.68921 5.29528,-12.68381 5.3125,-12.5 l 180.28125,0 c 19.629892,0 35.4375,-47.42273 35.4375,-106.3125 l 0,-94.875 c 0,-58.88977 -15.807608,-106.28125 -35.4375,-106.28125 l -180.3125,0 c 0,0 -5.07521,-8.7992 -5.28125,-12.5 -1.17344,-21.07661 -22.74879,-43.21752 -39.1875,-49.75 -1.5796,-0.62771 -2.97043,-0.92533 -4.15625,-0.90625 z"
       id="rect3803"
       transform="translate(96.299213,298.26769)" />
    <path
       style="color:#335;fill:none;stroke:#335;stroke-width:25;stroke-linecap:round;stroke-linejoin:round;stroke-miterlimit:4;stroke-opacity:1;stroke-dasharray:none;stroke-dashoffset:0;marker:none;visibility:visible;display:inline;overflow:visible;enable-background:accumulate"
       d="M -138.42547,684.31908 -34,642.0298 c 12.47858,86.23335 13.494616,194.94664 0,277.73566 l -104.42547,-42.28928 z"
       id="path3809" />
    <path
       id="path3815"
       d="M -292.25633,684.31908 -364.6818,642.0298 c -12.47858,86.23335 -13.49461,194.94664 0,277.73566 l 72.42547,-42.28928 z"
       style="color:#335;fill:none;stroke:#335;stroke-width:25;stroke-linecap:round;stroke-linejoin:round;stroke-miterlimit:4;stroke-opacity:1;stroke-dasharray:none;stroke-dashoffset:0;marker:none;visibility:visible;display:inline;overflow:visible;enable-background:accumulate" />
    <path
       style="color:#335;fill:none;stroke:#335;stroke-width:25;stroke-linecap:round;stroke-linejoin:round;stroke-miterlimit:4;stroke-opacity:1;stroke-dasharray:none;stroke-dashoffset:0;marker:none;visibility:visible;display:inline;overflow:visible;enable-background:accumulate"
       d="m -16.286897,782.42326 -23.81629,-34.64188 -7.08256,-71.44888"
       id="path3819"
       />
    <path
       id="path3822"
       d="m -16.286897,906.42326 -23.81629,-34.64188 -7.08256,-71.44888"
       style="color:#335;fill:none;stroke:#335;stroke-width:25;stroke-linecap:round;stroke-linejoin:round;stroke-miterlimit:4;stroke-opacity:1;stroke-dasharray:none;stroke-dashoffset:0;marker:none;visibility:visible;display:inline;overflow:visible;enable-background:accumulate" />
    <path
       style="color:#335;fill:none;stroke:#335;stroke-width:25;stroke-linecap:round;stroke-linejoin:round;stroke-miterlimit:4;stroke-opacity:1;stroke-dasharray:none;stroke-dashoffset:0;marker:none;visibility:visible;display:inline;overflow:visible;enable-background:accumulate"
       d="m 73.875,359.125 c -0.26469,0.0108 -0.516768,0.026 -0.78125,0.0625 -0.884619,0.12223 -1.756919,0.38953 -2.5625,0.78125 5.118812,15.35018 8.654493,35.41291 9.875,57.875 0.254569,-0.0113 0.526881,-0.0274 0.78125,-0.0625 C 89.650923,416.6118 94.704752,402.5571 92.46875,386.375 90.302623,370.6986 82.080377,358.79094 73.875,359.125 z"
       transform="translate(96.299213,298.26769)"
       id="path3824"
       />
    <path
       id="path3830"
       d="m 170.17421,904.40257 c -0.26469,-0.0108 -0.51677,-0.026 -0.78125,-0.0625 -0.88462,-0.12223 -1.75692,-0.38953 -2.5625,-0.78125 5.11881,-15.35018 8.6545,-35.41291 9.875,-57.875 0.25457,0.0113 0.52688,0.0274 0.78125,0.0625 8.46343,1.16945 13.51725,15.22415 11.28125,31.40625 -2.16612,15.6764 -10.38837,27.58406 -18.59375,27.25 z"
       style="color:#335;fill:none;stroke:#335;stroke-width:25;stroke-linecap:round;stroke-linejoin:round;stroke-miterlimit:4;stroke-opacity:1;stroke-dasharray:none;stroke-dashoffset:0;marker:none;visibility:visible;display:inline;overflow:visible;enable-background:accumulate"
       />
    <path
       style="color:#335;fill:none;stroke:#335;stroke-width:25;stroke-linecap:round;stroke-linejoin:round;stroke-miterlimit:4;stroke-opacity:1;stroke-dasharray:none;stroke-dashoffset:0;marker:none;visibility:visible;display:inline;overflow:visible;enable-background:accumulate"
       d="m 188.94596,647.48648 6.42601,-10.89493"
       id="path3832"
       />
    <path
       style="color:#335;fill:none;stroke:#335;stroke-width:25;stroke-linecap:round;stroke-linejoin:round;stroke-miterlimit:4;stroke-opacity:1;stroke-dasharray:none;stroke-dashoffset:0;marker:none;visibility:visible;display:inline;overflow:visible;enable-background:accumulate"
       d="m 201.30741,670.5162 9.74303,-3.78895"
       id="path3834"
       />
    <path
       style="color:#335;fill:none;stroke:#335;stroke-width:25;stroke-linecap:round;stroke-linejoin:round;stroke-miterlimit:4;stroke-opacity:1;stroke-dasharray:none;stroke-dashoffset:0;marker:none;visibility:visible;display:inline;overflow:visible;enable-background:accumulate"
       d="m 204.39778,694.26315 11.90815,1.62384"
       id="path3836"
       />
    <path
       style="color:#335;fill:none;stroke:#335;stroke-width:25;stroke-linecap:round;stroke-linejoin:round;stroke-miterlimit:4;stroke-opacity:1;stroke-dasharray:none;stroke-dashoffset:0;marker:none;visibility:visible;display:inline;overflow:visible;enable-background:accumulate"
       d="m 200.13687,716.45561 9.83101,6.02342"
       id="path3838"
       />
    <path
       id="path3840"
       d="m 188.94596,914.30878 6.42601,10.89493"
       style="color:#335;fill:none;stroke:#335;stroke-width:25;stroke-linecap:round;stroke-linejoin:round;stroke-miterlimit:4;stroke-opacity:1;stroke-dasharray:none;stroke-dashoffset:0;marker:none;visibility:visible;display:inline;overflow:visible;enable-background:accumulate" />
    <path
       id="path3842"
       d="m 201.30741,891.27906 9.74303,3.78895"
       style="color:#335;fill:none;stroke:#335;stroke-width:25;stroke-linecap:round;stroke-linejoin:round;stroke-miterlimit:4;stroke-opacity:1;stroke-dasharray:none;stroke-dashoffset:0;marker:none;visibility:visible;display:inline;overflow:visible;enable-background:accumulate" />
    <path
       id="path3844"
       d="m 204.39778,867.53211 11.90815,-1.62384"
       style="color:#335;fill:none;stroke:#335;stroke-width:25;stroke-linecap:round;stroke-linejoin:round;stroke-miterlimit:4;stroke-opacity:1;stroke-dasharray:none;stroke-dashoffset:0;marker:none;visibility:visible;display:inline;overflow:visible;enable-background:accumulate" />
    <path
       id="path3846"
       d="m 200.13687,845.33965 9.83101,-6.02342"
       style="color:#335;fill:none;stroke:#335;stroke-width:25;stroke-linecap:round;stroke-linejoin:round;stroke-miterlimit:4;stroke-opacity:1;stroke-dasharray:none;stroke-dashoffset:0;marker:none;visibility:visible;display:inline;overflow:visible;enable-background:accumulate" />
    <path
       style="color:#335;fill:none;stroke:#335;stroke-width:25;stroke-linecap:round;stroke-linejoin:round;stroke-miterlimit:4;stroke-opacity:1;stroke-dasharray:none;stroke-dashoffset:0;marker:none;visibility:visible;display:inline;overflow:visible;enable-background:accumulate"
       d="m -540.6875,361.65625 0,25.65625 22.96875,0 c 1.58691,-9.45886 3.61646,-18.09013 6.03125,-25.65625 z"
       transform="translate(96.299213,298.26769)"
       id="rect3848"
       />

  </g>
</svg>
