<?xml version="1.0" encoding="UTF-8" standalone="no"?>
<svg
   xmlns:svg="http://www.w3.org/2000/svg"
   xmlns="http://www.w3.org/2000/svg"
   width="368.84375"
   height="334.5625"
   version="1.1">
  
  <g transform="translate(-270.21875,-431.15625)">
    <path
       style="fill:none;stroke:#7FFFAA;stroke-width:10;"
       d="m 517.61383,481.03405 c -26.06773,0 -49.12791,12.68088 -63.46875,32.1875 -14.35999,-19.29378 -37.28731,-31.8125 -63.1875,-31.8125 -43.51557,0 -78.78125,35.26568 -78.78125,78.78125 0,10.745 2.13761,20.98024 6.03125,30.3125 l 0.0625,0.0937 c 2.76047,6.59011 6.4245,12.71349 10.78125,18.25 l 124.59375,129.8438 c 41.75685,-41.79895 88.65523,-91.41528 125.875,-130.21875 4.35675,-5.53651 8.02078,-11.65989 10.78125,-18.25 l 0.0625,-0.0937 c 3.89364,-9.33226 6.03125,-19.5675 6.03125,-30.3125 0,-43.51557 -35.26568,-78.78125 -78.78125,-78.78125 z"
       id="path2985-9" />
  </g>
</svg>
