<!-- Created with Inkscape (http://www.inkscape.org/) -->
<svg xmlns:rdf="http://www.w3.org/1999/02/22-rdf-syntax-ns#" xmlns="http://www.w3.org/2000/svg" height="600" width="680" version="1.1" xmlns:cc="http://creativecommons.org/ns#" xmlns:dc="http://purl.org/dc/elements/1.1/">
<metadata>
<rdf:RDF>
<cc:Work rdf:about="">
<dc:format>image/svg+xml</dc:format>
<dc:type rdf:resource="http://purl.org/dc/dcmitype/StillImage"/>
<dc:title/>
</cc:Work>
</rdf:RDF>
</metadata>
<desc>UK traffic sign 544.1 -- Pedestrians in road ahead - TSRGD No.544.1 -- Graphic created by Detmar Owen</desc>
<path fill="#ec1d24" d="m45.551,600c-16.077,0-30.933-8.577-38.971-22.5-8.0385-13.923-8.0385-31.077,0-45l294.45-510c8.0385-13.923,22.894-22.5,38.971-22.5s30.933,8.577,38.971,22.5l294.45,510c8.0385,13.923,8.0385,31.077,0,45s-22.894,22.5-38.971,22.5h-588.9z"/>
<path fill="#FFF" d="M340,75,608.47,540,71.532,540,340,75z"/>
<path fill="#000" d="m240.24,509.71c-0.32563-5.5548-0.23242-21.438-0.23242-21.438,0-17.338,0.34331-19.531-1.9753-21.716-3.2116,1.6001-5.654,6.0355-8.9857,22.271-2.0722,10.049-1.938,14.485-4.1872,20.609-2.0648,3.1639-10.182,8.5276-12.699,8.5276-5.1503,0-0.86211-7.0839,1.095-9.0074,0.30707-3.4168,0.0822-16.445,0.0822-22.607,0-5.9574,0.1993-20.11-0.23437-25.841-0.65508-0.93248-2.7976-1.0797-3.5136-1.6545,0.93658-6.6074,5.0817-26.135,5.0817-36.509,0-4.5965-0.81265-17.439-3.6889-17.439-4.2987,0-8.262,27.072-8.262,30.942,0,5.7788,4.1115,5.391,4.1115,9.1349,0,4.954-3.5409,6.1227-7.5958,6.1227-5.7438,0-7.3108-3.3322-9.2976-5.7604,0.0762-2.8465,0.3885-16.966,0.3885-24.685,0-26.868,4.2981-36.136,11.2-44.307,2.1416-2.5352,6.5716-5.6484,9.1967-6.7509,6.0128-2.5252,6.628-4.4891,2.6577-9.4829-1.7835-2.2433-4.125-5.3243-4.125-11.945,0-8.3592,6.4839-18.534,18.751-18.534,9.9852,0,18.325,9.1175,18.325,17.717,0,6.2402,0.6124,5.8718-4.1496,12.059-3.7712,4.8998-4.5304,7.1742-2.4663,8.6492,2.357,1.6844,5.2987,2.0759,10.782,2.0759,2.2211,0,9.4575,0.98433,11.203-1.2757-0.62131-4.7526-1.3921-6.4104,2.7387-8.7952,2.3577-1.3612,4.2221-2.3898,5.4893-7.2332,2.4264-9.274,6.0686-31.411,13.016-57.339,5.9914-22.36,13.25-60.584,15.5-64.481,2.7338-4.7351,12.236-8.223,23.104-12.633,12.683-5.1464,15.982-4.6271,9.9002-13.58-2.4391-3.5904-8.1391-9.9431-8.1391-22.163,0-14.368,10.926-25.276,26.837-25.276,13.102,0,25.002,10.317,25.002,24.05,0,11.272-4.5784,18.099-5.8237,19.781-5.2412,7.0789-10.267,12.496,1.8273,14.633,10.461,1.8489,34.471,13.711,39.249,24.36,6.0922,13.579,13.598,59.659,13.598,79.283,0,24.432-1.6695,30.043-1.6695,36.756,0,4.7482,1.8059,7.8465,1.8059,10.124,0.0729,5.9385-5.9012,10.542-11.358,10.881-6.5155-0.26681-10.146-5.6759-10.372-10.655-0.15643-3.4487,1.3653-5.0962,1.9449-7.5308,1.3509-5.0415,1.4832-14.545,1.4832-19.85,0-26.615-10.753-51.046-20.563-63.984-0.5086,5.8747,8.024,78.967,8.024,97.978,0,28.896-12.068,123.26-13.836,135.46,1.6955,3.011,3.2492,4.6647,3.2492,8.3661,0,2.1185,0.13705,4.1413-3.5283,3.6608-5.0511-0.66225-12.758-10.249-17.45-15.601,0.98866-10.666,1.7703-40.497,1.7703-53.98,0-23.89-2.7439-59.196-5.3078-73.273-6.4667,23.455-8.6113,54.088-8.6113,81.855,0,16.832,0.37289,28.402-0.50107,42.471-2.2415,3.7334-20.37,18.253-24.859,18.253-3.5358,0-3.2181-1.2559-3.2181-3.4747,0-2.329,3.8152-6.7028,7.147-10.593-4.2174-55.156-10.34-122.36-10.34-133.07,0-39.744,2.0272-90.413,1.6303-97.152-4.7756,12.377-26.879,68.787-31.359,80.502-1.3147,3.4383-2.2841,5.2636,1.3927,8.856,3.0548,2.9847,0.74163,4.756-3.729,8.1339-2.5469,1.9244-12.291,8.2717-25.115,13.573-5.2884,2.1863-7.2342,2.8258-7.2342,5.4216,0,2.9033,3.1226,16.341,7.1822,32.896,4.249,17.328,6.2989,27.301,7.6776,33.863-1.372,7.1438-6.2695,11.836-10.417,12.522-0.49264,3.7669-1.7653,11.022-2.3826,15.293-1.1464,7.931-2.4932,16.205-2.8056,20.59,3.3972,3.2929,10.659,13.092,4.3071,13.092-3.7357,0-12.327-6.6587-16.311-10.745l-0.40734-0.40729z"/>
</svg>
