<?xml version="1.0" encoding="utf-8"?>

<!-- License Agreement at http://iconmonstr.com/license/ -->

<!DOCTYPE svg PUBLIC "-//W3C//DTD SVG 1.1//EN" "http://www.w3.org/Graphics/SVG/1.1/DTD/svg11.dtd">
<svg version="1.1" xmlns="http://www.w3.org/2000/svg" xmlns:xlink="http://www.w3.org/1999/xlink" x="0px" y="0px"
	 width="512px" height="512px" viewBox="0 0 512 512" enable-background="new 0 0 512 512" xml:space="preserve">
<path id="wrench-8-icon" d="M359.041,97.367c-31.67-18.283-66.988-27.477-102.33-27.598V30.082l-83.71,60.324l83.71,60.082v-40.682
	c28.43,0.121,56.836,7.527,82.311,22.234c51.373,29.66,83.02,84.475,83.02,143.797c0,27.683-6.896,54.382-19.469,78.004
	l-28.905-28.904c-11.248-11.249-17.07-26.818-15.979-42.688c1.959-28.476-7.94-57.61-29.708-79.378
	c-28.623-28.623-69.984-36.729-105.832-24.333l65.082,65.083c1.494,25.39-37.764,64.646-63.153,63.152l-65.081-65.082
	c-12.396,35.848-4.291,77.21,24.332,105.833c21.767,21.768,50.902,31.666,79.378,29.707c15.855-1.091,31.45,4.74,42.688,15.979
	l28.997,28.996c-50.512,27.059-111.571,26.204-161.412-2.571c-51.374-29.662-83.021-84.477-83.021-143.797
	c0-44.615,17.9-86.68,48.63-117.412l-28.312-28.312c-38.14,38.145-60.356,90.352-60.356,145.725
	c0,73.625,39.278,141.658,103.04,178.471s142.319,36.812,206.081,0S462.08,349.463,462.08,275.838S422.803,134.18,359.041,97.367z"
	/>
</svg>
