<?xml version="1.0" encoding="UTF-8" standalone="no"?>
<svg
   width="400"
   height="400"
   version="1.0"
   >
<path xmlns="http://www.w3.org/2000/svg" d="m 0,0 c -3.539,0 -6.912,-0.703 -9.984,-1.991 l -10.269,17.894 1.95,5.367 c 5.123,0.498 6.971,5.206 6.971,6.003 0,0.799 -0.951,0.799 -0.951,0.799 h -22.208 c -0.496,0 -2.13,-0.418 -2.13,-2.168 0,-1.749 1.863,-2.053 1.863,-2.053 l 9.736,-2.144 -2.358,-6.489 h -47.188 c 0.584,2.18 0.945,3.524 0.945,3.524 0,0 0.405,1.319 0.405,1.876 0,2.644 -1.961,4.619 -2.789,5.065 -0.164,0.089 -0.716,0.336 -0.716,1.077 0,0.741 0.431,1.362 1.376,1.362 h 9.837 v 6.541 h -12.373 c 0,0 -6.49,-0.608 -6.49,-7.25 0,-3.884 1.927,-4.766 3.448,-5.68 0.507,-0.303 0.963,-1.571 0.761,-2.281 -0.119,-0.414 -3.14,-11.748 -5.634,-21.112 -2.837,1.072 -5.91,1.66 -9.122,1.66 -14.256,0 -25.814,-11.558 -25.814,-25.814 0,-14.257 11.558,-25.815 25.814,-25.815 14.257,0 25.815,11.558 25.815,25.815 0,8.667 -4.272,16.336 -10.824,21.018 0.28,1.047 0.566,2.116 0.855,3.193 l 29.979,-20.946 c -0.327,-1.03 -0.504,-2.127 -0.504,-3.265 0,-5.971 4.84,-10.811 10.81,-10.811 1.068,0 2.098,0.156 3.072,0.444 l 1.603,-3.489 h -2.754 v -3.498 h 3.086 c 0.486,-0.766 1.34,-1.274 2.313,-1.274 0.974,0 1.828,0.508 2.314,1.274 h 3.01 v 3.498 h -4.51 l -2.25,4.786 c 2.322,1.51 4.028,3.888 4.659,6.673 l 2.467,-0.037 c 1.244,-13.098 12.355,-23.381 25.779,-23.381 14.258,0 25.814,11.558 25.814,25.815 C 25.814,-11.558 14.258,0 0,0" style="fill:#000000"/>
</svg>