<?xml version="1.0" encoding="utf-8"?>
<!DOCTYPE svg
 PUBLIC "-//W3C//DTD SVG 1.1//EN"
 "http://www.w3.org/Graphics/SVG/1.1/DTD/svg11.dtd">
<svg version="1.1" id="Layer_1"
	xmlns="http://www.w3.org/2000/svg"
	xmlns:xlink="http://www.w3.org/1999/xlink" x="0px" y="0px"
	 width="64px" height="64px" viewBox="0 0 64 64" xml:space="preserve">

    <g style="fill:#fff; stroke-width:2; stroke:#fff;" >
	<path d="M32.331,22.854c5.016,0,9.094-4.081,9.094-9.095c0-5.02-4.078-9.106-9.094-9.106c-5.015,0-9.095,4.086-9.095,9.106
		C23.236,18.773,27.316,22.854,32.331,22.854z M32.331,5.899c4.326,0,7.848,3.525,7.848,7.86c0,4.326-3.521,7.846-7.848,7.846
		c-4.329,0-7.849-3.52-7.849-7.846C24.482,9.425,28.002,5.899,32.331,5.899z"/>
	<path d="M52.594,34.223c-0.812-9.639-11.851-9.767-12.184-9.725H23.424c-4.285,0-7.284,1.655-7.284,1.655
		c-4.852,2.946-4.694,6.762-4.702,6.864l-0.025,14.035c-0.029,0.2-0.004,1.78,0.966,2.906c0.673,0.779,1.615,1.174,2.804,1.174
		h5.272l-0.004,7.745l24.825,0.021V57.93c0.769,0.864,1.88,1.417,3.125,1.417c2.313,0,4.195-1.882,4.195-4.229L52.594,34.223z
		 M15.717,49.883l-0.535,0.003c-0.758,0-1.353-0.219-1.772-0.648c-0.768-0.787-0.758-2.052-0.757-2.092l0.028-14.064
		c0.02-0.195,0.408-3.275,3.431-5.38L15.717,49.883z M16.963,49.835l0.41-22.823c0.869-0.299,3.196-0.993,6.545-1.236l4.914,18.436
		c0.947,2.176,1.684,4.933,1.271,5.564c-0.021,0.029-0.039,0.059-0.156,0.059H16.963z M51.349,55.148
		c0,1.628-1.324,2.952-2.949,2.952c-1.628,0-2.951-1.324-2.951-2.983l-0.007-0.622V32.312h-1.426l0.011,25.337l-22.329-0.016
		l0.004-6.552h8.245h2.614c2.134,0,3.869-1.738,3.869-3.873s-1.735-3.869-3.869-3.869h-2.68L25.2,25.745h15.217
		c0.426-0.003,10.21-0.029,10.932,8.532V55.148z M30.33,44.586h2.231c1.446,0,2.623,1.177,2.623,2.623
		c0,1.449-1.177,2.626-2.623,2.626l-1.181,0.003C31.69,48.386,30.88,45.974,30.33,44.586z"/>
</g>
</svg>
