<?xml version="1.0"?>
<svg width="1055" height="1226" xmlns="http://www.w3.org/2000/svg">
 <metadata id="metadata3118">image/svg+xml</metadata>
 <defs>
  <clipPath id="clipPath2834">
   <rect id="rect2836" y="4.366421" x="0" height="782.58063" width="1425"/>
  </clipPath>
 </defs>
 <g>
  <title>background</title>
  <rect fill="none" id="canvas_background" height="402" width="582" y="-1" x="-1"/>
 </g>
 <g>
  <title>Layer 1</title>
  <g id="Water" transform="scale(1 1.55)">

   <path fill="#b2daf7" stroke="#0978ab" stroke-width="0.5" stroke-linecap="round" stroke-linejoin="round" stroke-miterlimit="10" id="Coast" d="m469.897095,656.762817l0.47998,-0.239929l0.23999,-0.23999l0,-0.239929l0.23996,-0.23999l0,-0.239929l-0.23996,-0.23999l0,-0.239929l-0.23999,-0.23999l-0.23999,-0.239929l-0.23999,0l-0.47998,-0.23999l-0.47998,0l-0.47998,0l-0.47995,0l-0.23999,0.23999l-0.23999,0l-0.47998,0.239929l-0.23999,0.479919l-0.23999,0.23999l0,0.239929l0,0.23999l0.23999,0.239929l0.23999,0.23999l0.23999,0.239929l0.23999,0l0.47998,0.23999l0.47995,0l0.47998,0l0.23999,0l0.47998,0l0.23999,-0.23999m176.151428,133.176208l0.47998,-0.239929l0.23999,0l0.23999,-0.23999l0.23999,-0.239929l0.23999,-0.239929l0,-0.479919l-0.23999,-0.23999l0,-0.239929l-0.23999,-0.23999l-0.23999,-0.239929l-0.47998,0l-0.23999,-0.23999l-0.47998,0l-0.47998,0l-0.47998,0l-0.47998,0l-0.23999,0.23999l-0.47998,0.239929l-0.23999,0.23999l0,0.239929l-0.23999,0.23999l0,0.239929l0,0.23999l0.23999,0.239929l0.23999,0.239929l0.23999,0.23999l0.23999,0.239929l0.47998,0l0.47998,0l0.47998,0.23999l0.47998,-0.23999l0.23999,0m407.980042,-482.793823l-3.599731,-3.119446l-0.23999,-0.23996l0,-0.479919l0.23999,-1.439758l0.719971,-1.439728l0.239868,-0.719879l0.720093,-0.959808l0.23999,-0.23996l0.47998,-0.719879l0.23999,-0.959839l0.23999,-0.23996l0,-0.23996l0.239868,-0.23996l-0.239868,-0.23996l0,-0.23996l-0.47998,-0.719849l-0.23999,-0.23996l-0.47998,-0.479919l-0.240112,-0.479919l0,-0.719849l0,-0.479919l0.480103,-0.719879l0.23999,-0.23996l0.47998,-0.479919l1.199829,-0.959839l-0.23999,17.036987zm-17.039063,-19.916473l0,-0.239929l-0.23999,0l0,-0.23996l-1.199951,0.23996l-0.23999,0l-0.240112,-0.23996l0.240112,-0.479919l0,-0.23996l-0.240112,0l-0.479858,-0.23996l-0.23999,-0.23996l-0.23999,-0.479919l0.23999,-0.479919l0.23999,-0.239929l1.199951,-1.439758l-0.720093,0l-0.479858,-1.439758l0.479858,0l0.240112,0l0.47998,-0.719849l0.23999,-0.23996l0.47998,-0.23996l1.439941,-0.479919l0.47998,-0.23996l-1.200073,-0.479919l-0.239868,-0.23996l-0.47998,-0.479889l-2.879883,0.479889l-0.23999,-0.239929l0.23999,-0.23996l0.719971,-0.719879l0.23999,-0.23996l-0.23999,0l0,-0.23996l-0.47998,0l-0.719971,-0.23996l-0.47998,0l-0.23999,0l-0.23999,0l-0.23999,0.23996l-0.47998,0.23996l-0.23999,0.479919l0,0.959808l-0.959961,0l-0.23999,0l0,-0.239929l-0.23999,0l0,-0.23996l0.23999,-0.23996l-0.23999,-0.719879l-1.199829,-0.479919l0,-1.439758l-1.440063,-0.959808l0.23999,0l-0.23999,-0.23996l-0.959839,-0.23996l-0.480103,-0.23996l-0.23999,-0.23996l-0.23999,-0.23996l-0.23999,-0.23996l0,-0.23996l0.47998,-0.959808l0,-0.23996l-0.23999,0l-0.47998,0l-0.719849,0.23996l-0.720032,0l-0.23999,0l0,-0.23996l0,-0.959839l0,-0.23996l-0.23999,0l-0.240051,0l-0.239868,0l-0.960022,0.959839l-0.719971,0.479919l-0.479919,0.479919l-1.919922,0.959808l0,0.23996l0,0.23996l0.9599,0.719879l0,0.479919l-0.47998,-0.23996l-0.9599,-0.23996l-0.719971,-0.479919l-0.240051,-0.23996l-0.23999,0l-0.239868,0l-1.679993,0.959839l-1.679932,0l-1.19989,1.199799l-0.719971,0.479889l-0.720032,0.479919l-1.679871,0.479919l2.399902,0.719879l1.679871,0.719849l0.960022,0.479919l0.47998,0.23996l0.239868,0.23996l1.440002,0.23996l0.71991,0.23996l0.720032,0.23996l0.719971,0.479919l0.9599,0.479889l0.960022,1.199799l0.479919,0.719879l0.719971,0.479919l0.47998,0.479919l0.720032,0.479889l1.919922,0.959839l0.23999,0.23996l0,0.23996l0,0.23996l0,0.23996l-0.720032,0l0,0.23996l-0.23999,0l0.480042,0.719849l-1.200012,1.199799l-0.240051,0l0.240051,0.23996l0.959961,0l0.240051,0l0.23999,0l0.23999,0l0.239868,-0.23996l0.959961,0l-0.47998,0.23996l0,0.23996l0,0.23996l1.919922,0.239929l0.47998,0.23996l0.23999,0l0,0.23996l0,0.23996l0,0.23996l-0.23999,0.23996l-0.23999,0.23996l-0.23999,0l-0.479858,0.23996l-0.23999,0l0.479858,0.719879l0,0.479919l0.23999,0.23996l0.23999,0l0.23999,-0.23996l0.960083,-0.959839l0.719849,-0.719879l0.23999,-0.479919l1.199951,-0.719879l0.47998,-0.239929l0.959961,-0.479919l0.23999,0l0.47998,-0.959839l0.959961,0.23996l0.47998,-0.479919l0.47998,-0.23996l0.239868,0l0.480103,0l0.719971,0l0.23999,0l0.23999,-0.23996l0.23999,-0.23996m-549.813232,38.633118l0.47998,0.23996l0.23999,0.23996l0.47998,0.479919l0.719971,1.439728l0.23999,0.23996l2.879852,0.719879l0.719971,0.23996l1.199921,0.479919l0.47998,0.479919l0.959961,1.679688l0,0.23996l0.23999,0l1.439941,0.719849l1.199921,0.719879l0.47998,0.479919l0.959961,0.959839l1.439941,3.839294l0.95993,2.639526l1.919922,3.839325l0.959961,0.959839l0.23996,0.479919l0,0.23996l0.23999,0.959808l0.23999,0.479919l0,0.719879l0.23999,3.359406l0,2.159607l0.959961,0.479919l0.719971,0.479919l0.959961,1.919647l0.95993,2.159607l0.719971,0.959839l0,0.23996l0,0.479919l0,0.23996l0,0.479889l-0.719971,0.719879l-5.999695,-0.23996l-1.679932,-0.23996l-1.919891,0.959839l-0.719971,0.23996l-0.47998,0.23996l-2.399872,0.959839l-2.399902,1.199768l-2.159882,0.23996l-5.759705,1.439758l-0.959961,0.479889l0,0.23996l0.959961,2.399567l-0.23999,0.23996l-0.23999,0l-0.23999,0l-0.23999,0l-1.439941,-2.639526l-2.159882,0.479919l-2.879852,0.479919l-1.439941,0.23996l-1.439941,0.23996l-3.359833,0.959808l-0.47998,0l-1.199951,0l-0.71994,0.23996l-0.959961,0l-3.119843,0.23996l-2.399872,0l-2.879883,0.23996l-0.959961,0.23996l-0.95993,-0.23996l-2.879852,0.479919l-0.47998,0l-0.719971,0l-0.719971,0l-0.959961,0l-0.47998,-0.23996l-0.71994,0l-1.199951,-0.719879l0.23999,-0.23996l1.679901,-1.439728l0.959961,-0.959839l0.47998,-0.719849l0.23999,-0.719879l-0.47998,-2.639526l0,-0.23996l0.719971,-0.479919l0.959961,-0.479919l0.959961,-0.719879l1.199921,-0.959808l0.47998,-0.479919l0.719971,-0.719879l0.71994,-0.959839l0.47998,-0.719849l0.47998,-0.719879l0.23999,-0.959839l0.23999,-0.479919l0,-2.159607l0,-4.799133l0.23999,-0.719879l0.47998,-1.199799l0.47998,-1.439728l0.719971,-2.639526l0.47998,-2.399567l1.439911,-0.959839l0.23999,-0.959839l0,-0.23996l0.23999,-0.959808l0.23999,-0.959839l1.919922,-2.639526l0.71994,-0.719879l2.159912,-3.119446l0.71994,-0.719849l0.959961,-0.719879l0.959961,-0.719879l0.719971,-0.479919l0.47998,-0.239929l0.23999,-0.23996l0.95993,-0.23996l2.639893,-0.959839l1.919891,-0.719879l0.47998,0l1.199951,-0.23996l1.679901,0.23996l1.919922,0l0.719971,0l0.71994,0.23996l0.47998,0m55.437317,282.909515l2.159912,-0.479919l4.319763,0l2.159912,0l0.959961,0l1.919861,-0.479919l6.239685,-0.719849l4.079834,-0.23999l2.639893,-0.239929l13.439331,-0.959839l0.959961,-0.239929l15.839233,-1.919678l2.159851,-0.71991l4.319824,-0.479858l16.559204,-2.159607l6.479675,-1.199829l3.359802,-0.479919l20.879028,-3.119446l10.079468,-1.679688l10.559509,-1.439758l11.519409,-1.919617l9.839539,-1.919678l9.599548,-1.679688l9.599487,-1.679688l5.759766,-1.199829l13.679321,-3.599365l7.199646,-2.399536l8.639587,-2.159607l6.959656,-1.679688l6.479675,-1.199829l7.919617,-1.439758l3.839844,-0.719849l11.039429,-2.159607l7.199646,-0.959839l12.959351,-1.919678l19.439087,-2.159607l9.359558,-1.199768l4.799744,-0.719849l14.159302,-2.399597l8.639587,-1.439758l20.878967,-1.919617l5.039734,-1.919678l5.519775,-1.439758l4.799744,-1.439758l4.079834,-1.199768l1.19989,-0.239929l0.47998,0l1.439941,0l1.679932,-0.23999l3.839783,-0.719849l1.439941,-0.719849l1.199951,-0.71991l5.519714,-2.159607l0.959961,0.23999l0.719971,0l0.47998,0l0.47998,-0.23999l0.47998,-0.239929l0.47998,-0.23999l0.23999,-0.239929l0.23999,-0.23999l0,-0.239929l0,-0.479919l-0.23999,-0.23999l-0.23999,-0.479919l-0.23999,-0.239929l0.23999,0l0,-0.239929l0.719971,0l0.23999,0l2.159851,-2.159668l3.119873,-3.839294l0.47998,-0.479919l0.23999,-0.239929l0,-0.959839l0,-2.639526l0.23999,-3.599365l0.23999,-0.719849l-0.47998,-0.479919l-0.23999,-0.23999l-0.23999,0l-0.23999,-0.239929l-0.47998,0l-0.47998,0l-2.159912,-4.319275l-0.239929,-0.479858l0,-0.23999l0.239929,-0.479919l0,-0.479919l3.359863,-9.838226l0.47998,-2.879486l0.47998,-4.559174l0,-0.719879l0,-0.959839l-0.959961,-1.919647l-0.23999,-0.719879l-0.47998,-1.199768l-0.47998,-0.959839l-0.23999,-0.23996l0,-0.719879l0.23999,-1.199768l0.47998,-0.959839l0,-0.23996l0,-0.23996l-0.23999,-0.23996l-0.23999,0l-0.959961,-0.719879l0,-0.239929l-0.23999,-0.959839l0,-2.159637l0,-0.239929l-0.23999,-0.23996l-0.9599,-0.959839l-0.23999,-0.479919l-0.719971,-1.439728l-0.47998,-0.479919l-0.47998,-0.23996l-1.439941,-0.479919l-1.439941,-0.23996l-1.439941,-0.23996l-0.47998,0l-0.47998,0l-0.71991,0.23996l-0.23999,0.23996l0,0.23996l0.23999,0.23996l0.71991,-0.23996l0.47998,0l0.23999,0.23996l0.47998,0.23996l0.23999,0l-0.23999,0.479919l1.439941,1.199768l0.719971,0.479919l0,0.23996l0.47998,0.23996l0.23999,0.479919l0,0.479919l0.23999,2.399567l0,0.479919l-0.47998,1.919647l-0.719971,0.23996l1.199951,7.678619l-0.23999,1.679718l-0.23999,2.879486l0,0.479919l-0.47998,0.719849l-0.23999,0.479919l-0.47998,0.479919l-0.47998,0.479919l-1.919922,1.679688l-0.719971,0.479919l-1.43988,1.199799l-4.799805,2.399536l-0.47998,0l-0.23999,0l-0.719971,0.23999l-0.239929,0l-4.799805,-0.959839l-4.319763,-0.959839l-0.959961,-0.239929l-0.719971,-0.23999l-0.719971,0l-0.719971,-0.239929l-0.719971,0l-0.719971,0.239929l-0.719971,0l-0.47998,0l-0.71991,0.23999l-0.47998,0.239929l-4.319824,1.679688l-0.959961,0.479919l-13.439331,5.758972l-8.879578,3.599365l-5.999695,2.639526l-2.159912,0.71991l-0.479919,0l-0.719971,0l-0.719971,-0.23999l-0.47998,0l0,0.719849l-1.919922,0.479919l-0.47998,0l0,-0.239929l0,-0.23999l0.23999,-0.479858l0.23999,0l0.23999,-0.23999l0.719971,-0.239929l0,-0.23999l-0.23999,0l-0.719971,-0.239929l-0.47998,0l-0.719971,0l-0.23999,0.239929l0,0.23999l0.23999,1.679688l-0.23999,0.239929l-5.759705,1.439758l-0.47998,0l-0.47998,0l-0.719971,0l-0.23999,0l-0.959961,-0.239929l-8.879578,-0.71991l-0.479919,-0.239929l-0.23999,0l-0.23999,-0.23999l-0.47998,-0.479919l-0.959961,-2.159607l-0.47998,-0.719849l-1.439941,-1.439758l0,-0.479919l0,-0.239929l0.23999,-0.23999l0.959961,-0.479858l0.719971,-0.23999l0.959961,-0.23999l0.47998,0l0.9599,-0.239929l2.639893,0.239929l0.719971,0l2.159912,0l0.719971,-3.119385l0.959961,-1.919678l0.23999,-0.959839l2.159851,-2.639526l3.119873,-2.879486l4.079773,-3.359406l-0.23999,-0.719849l0.47998,0l0.47998,-0.23996l0.47998,-0.23996l2.399902,-1.679718l3.599792,-3.119446l2.639893,-1.439728l0.23999,-0.23996l0.719971,-0.23996l4.559753,-1.199799l0.719971,-0.239929l1.679932,-0.479919l0.23999,-0.23996l0.23999,-0.23996l0,-0.23996l0.23999,-0.23996l-0.23999,-1.199799l-0.23999,-1.199768l-0.47998,-0.479919l-0.47998,-0.719879l-0.23999,-0.23996l-0.23999,-0.719849l-0.23999,-0.23996l0,-1.199799l-0.23999,-1.199768l0,-0.719879l0.23999,-0.719879l0.47998,-0.719879l0.23999,-0.23996l0.23999,0l0.959961,0l0.23999,0l0,-0.23996l0,-0.23996l-0.47998,-0.479889l-0.23999,-1.199799l0,-0.23996l-1.199951,-1.679688l-0.719971,-0.719879l-0.47998,-2.399567l-0.23999,-1.199799l-0.47998,-1.199768l-0.23999,-0.479919l-1.19989,-2.879486l-0.47998,-0.959839l-0.47998,-0.719879l-0.959961,-1.199768l-2.159912,-4.079285l0.23999,-0.23996l0.23999,-0.23996l0,-0.479919l-0.47998,-0.719849l0,-0.23996l0,-0.479919l0,-0.23996l-0.959961,-0.959839l-0.23999,-0.479889l-0.23999,-1.679718l-0.23999,-0.479919l-0.23999,-0.719849l-0.9599,-1.439758l-0.47998,-0.23996l-0.23999,-0.719879l0,-1.199768l-0.23999,-0.719879l-0.47998,-0.719879l-0.47998,-0.719849l-0.23999,-0.23996l-0.23999,-1.199799l-0.23999,-1.199799l0,-0.23996l-0.47998,-0.719849l-0.959961,-1.679718l-0.719971,-2.159607l-0.959961,-2.399567l-0.959961,-1.679688l0.23999,-1.679718l0,-0.479919l-0.23999,-0.479889l-0.23999,-0.23996l-1.679871,-1.919678l-1.679932,-2.639526l-0.47998,-0.479919l0,-0.719849l0,-2.639526l-0.23999,-0.959839l-0.47998,-0.959839l0,-0.479919l0,-1.199768l0,-1.199799l-0.23999,-0.959808l-0.23999,-0.23996l-0.47998,-0.959839l0,-0.23996l-0.23999,-0.719879l0,-0.23996l0,-2.399567l-0.23999,-2.399567l-0.23999,-0.959839l-0.719971,-0.719849l0,-0.23996l-0.23999,-0.959839l0,-0.479919l0,-0.479919l0.23999,-0.23996l0.23999,-0.479919l1.919922,-3.359375l1.199951,-2.399597l0.959961,-0.959808l0.959961,-1.199799l1.43988,-1.199768l0.47998,-0.479919l-0.23999,-0.959839l-0.719971,-1.439728l-0.47998,-1.919678l0,-0.479919l0,-0.239929l0.23999,-0.23996l0.959961,-0.959839l0.959961,-0.479919l1.919922,-1.439728l0.47998,-0.479919l0.23999,-0.479919l0.47998,-0.479919l0,-0.479889l0.23999,-0.479919l0.23999,-1.919678l0,-0.959808l0,-1.439758l-0.23999,-0.959839l-0.47998,-1.199768l0,-0.23996l0.23999,-0.479919l0,-0.23996l0,-0.23996l-0.47998,-0.479919l-1.199951,-1.199768l0.47998,0l3.359863,0l5.279724,-0.23996l0,-1.199799l-9.839539,0.23996l-2.399902,-2.399567l-0.9599,-1.439728l-0.23999,-0.719879l-1.919922,-2.399567l-1.919922,-2.879486l-1.919922,-2.399597l-0.47998,-0.959808l-0.23999,-0.719879l0,-0.719879l0,-0.719849l0.23999,-0.959839l0.47998,-0.959839l0.23999,-1.199768l0.23999,-2.879486l0,-1.919678l0,-0.23996l0,-0.479889l0.23999,-3.359406l0,-1.199799l-0.23999,-2.639526l0,-1.199768l-0.47998,-1.679718l-0.9599,-1.919647l-0.719971,-1.439758l-0.719971,-0.959808l-1.199951,-1.439758l-0.959961,-3.599365l0,-0.959808l0.23999,-1.679718l0.719971,-2.879486l-0.23999,-0.959839l-0.47998,-1.919647l0,-0.23996l0.47998,-0.719849l1.679932,-2.399597l0.719971,-0.959808l1.19989,-0.719879l0.23999,-0.479919l2.879883,-1.679688l0.47998,-0.23996l0.47998,-0.479919l0,-0.23996l0.23999,-0.23996l0.23999,-0.479919l0,-0.719849l0.23999,-0.23996l-0.23999,-0.959839l0,-0.719879l0.47998,-1.199799l0.959961,-2.159607l0.479919,-1.439728l0.23999,-0.719879l0,-0.959808l0,-0.479919l-0.23999,-0.959839l-0.71991,-1.199799l-0.719971,-1.439728l0,-0.719879l0.23999,0l0.23999,-0.23996l0.719971,-0.479919l-1.199951,-0.23996l-0.47998,0l-0.23999,0l-0.23999,0l0,-0.239929l-0.719971,-2.399597l0,-0.479919l0.23999,-0.479889l0.23999,-0.23996l0.23999,-0.479919l0.47998,-0.23996l0.719971,-0.479919l0.959961,-0.479919l0.239929,-0.23996l0.23999,-0.23996l0.959961,-0.239929l-3.119812,-6.238892l-0.719971,-0.23996l-1.439941,-1.679718l-1.199951,-0.719849l-0.719971,-0.959839l-0.47998,-0.23996l-0.71991,-0.23996l-0.959961,-0.23996l-1.199951,0l-1.919922,-0.23996l-0.719971,-0.23996l-0.719971,0l-3.119812,0.23996l-0.959961,-0.23996l-0.23999,0l-4.319824,-2.159607l-0.23999,-0.479919l0.47998,-1.679688l0.23999,-1.439758l0,-0.959808l-0.719971,-1.919678l-0.719971,-1.919647l-0.23999,-0.479919l0,-0.479919l0,-1.199768l0.719971,-2.399597l0,-0.479889l0,-2.399567l0,-1.199799l0,-0.719879l0.23999,-0.479889l0,-0.479919l0.23999,-0.23996l2.639893,-4.319244l0.959961,-1.199768l0.47998,-2.639557l-1.199951,-0.719849l-1.439941,-0.959839l0.23999,-1.199799l1.679932,-4.079254l0,-0.959839l0,-0.239944l-0.23999,-0.23996l-0.23999,-0.23996l-0.23999,-0.239944l-1.679932,-0.479935l-0.719971,0.239975l-0.47998,0.479904l-0.23999,0l0,0.23996l-1.19989,5.279068l-5.279785,-1.919678l-12.959351,-4.319229l-1.199951,-0.959824l-3.119812,-3.119446l-1.679932,-1.919647l-2.399902,-2.879486l-0.23999,-0.23996l-0.719971,-0.23996l-0.23999,0l0,0.23996l1.919922,2.639526l2.159912,2.879486l0,0.23996l-0.23999,0l-0.959961,0l-0.719971,-0.23996l-2.879883,-0.959839l-0.9599,-0.239944l-0.47998,0l-4.799805,-0.479919l-3.599792,-0.239944l-1.439941,0l-3.359863,-0.23996l-6.959656,-0.959839l-11.039429,-2.639526l-2.879883,-0.719864l-1.439941,-0.479919l-2.399841,-1.439743l-1.919922,-0.719879l-3.599854,-1.919662l-2.639832,-0.959824l-7.679626,-3.359406l-4.799805,-1.679688l-3.599792,-0.959824l-5.279785,-0.959839l-6.239685,-1.439743l-6.719666,-1.199783l-11.039429,-1.439743l-15.839233,-1.679703l-1.919922,0l-7.919617,-0.959824l-7.919617,-0.23996l-19.199036,-0.719864l0,-1.199799l-0.23999,-0.23996l0,-0.239944l-0.23999,0l-0.47998,0l-5.999756,-0.719879l-1.19989,0l-0.47998,0.23996l-5.279785,0l-0.47998,-0.719879l-5.039734,0l-1.439941,0.23996l-1.679871,-0.23996l-4.559814,-0.479904l-2.159912,0l-2.159851,0l-0.719971,0.239944l-1.919922,0.23996l-0.719971,0.23996l-1.439941,0.479919l-3.119812,1.439743l-2.159912,0.719879l-0.719971,0.239944l-0.959961,0.23996l-1.43988,0l-1.199951,0.479919l-0.47998,0.479919l-0.719971,0.959824l-0.719971,5.758972l-0.959961,4.559189l-0.23999,2.159607l-0.23999,2.639526l0,3.599365l0,0.479904l-0.23999,0.479919l-0.47998,0.479919l-2.639893,1.679703l-3.119812,1.679688l-2.399902,1.199799l-0.719971,0.479904l-0.9599,0.479919l-2.399902,1.679703l-0.959961,0.719879l-0.47998,0.479904l-0.719971,0.479919l-1.439941,1.439743l0,0.23996l-0.23999,0.479904l0,0.23996l-0.23999,1.439743l-0.47998,0.479919l-0.23999,0l-0.47998,0.23996l-1.19989,0.479919l-0.47998,0.239929l-5.519775,1.679718l-0.47998,0.23996l-1.43988,0.719849l-1.199951,0.47995l-0.959961,0.719849l-1.679932,1.199799l0,0.23996l-0.47998,0.479919l-1.199951,3.119415l-0.479919,1.919678l0,0.479919l0,0.23996l0.479919,0.479889l2.159912,0.959839l0.47998,0.479919l0.23999,2.639526l0,4.079285l-0.47998,1.919647l-0.47998,1.199768l-0.719971,3.119446l0,0.23996l0,0.719879l-0.23999,1.199799l-0.719971,1.679688l-0.47998,1.439728l-0.479919,2.879517l-0.23999,0.959808l-0.23999,0.479919l-0.23999,0.479919l-0.23999,0.23996l-0.47998,0.479919l-1.439941,0.959808l-0.23999,0.23996l-0.47998,0.479919l-0.23999,0.719879l-0.47998,0.23996l-1.439941,0.23996l-2.399841,0.23996l-0.959961,-0.23996l-1.199951,-0.479919l-0.959961,-0.719879l-0.23999,-0.23996l-0.23999,-0.23996l-2.639893,0l0,-1.919647l0,-1.439758l-0.47998,0l0,-1.679688l-0.239929,-1.199799l-1.679932,-0.719849l-0.959961,-0.479919l-0.959961,-0.23996l-1.199951,-0.479919l-1.439941,0l-1.919861,0l-1.439941,-0.479919l-1.679932,-0.23996l-1.679932,-1.199768l-0.47998,-0.479919l-1.439941,-2.399567l-1.43988,0.479919l0.9599,2.159607l0.959961,1.439728l-1.19989,0.479919l-0.23999,0.479919l-1.679932,-0.23996l-0.719971,-0.23996l-0.719971,-0.23996l-1.439941,-0.23996l-1.919922,-0.719849l-0.479919,-0.23996l-1.919922,0.479889l-0.23999,0l-1.199951,-0.479889l3.839783,-5.519043l0.959961,-1.439728l-0.23999,-0.719879l-4.079773,-1.199768l-0.959961,-0.23996l-0.47998,0l-3.119812,3.839294l-1.199951,1.439758l-3.359863,-2.159607l-2.879883,-1.679718l-0.9599,-0.23996l0,-0.239929l-0.23999,-0.479919l0,-0.959839l0.23999,-1.439758l0,-0.23996l-0.23999,-0.479889l-1.679932,-1.439758l-1.919922,-1.199768l-0.719971,-0.23996l-0.47998,-0.23996l-0.71994,-0.479919l-0.719971,-0.719879l-0.23999,-0.479919l-6.719666,-0.479889l0,1.199768l5.999695,3.839325l-0.23999,2.159607l-0.23999,0l-1.439911,1.199799l-5.759735,3.599335l-1.199951,0.719879l-2.399872,0.959839l-1.679932,0.23996l-1.199921,0.23996l-2.159882,0l-2.159912,0.23996l-0.47998,0l-0.47998,0l-3.359833,-0.23996l-0.47998,0l-0.959961,0l-4.559753,0.719849l-1.199951,0.23996l-3.119843,0.23996l-1.439941,0l-3.119843,-0.23996l-1.679901,-0.23996l-1.439941,-0.239929l-0.95993,-0.479919l-1.199951,-0.479919l0.47998,-1.439758l-0.23999,-0.23996l-0.719971,0l-0.959961,0.479919l-0.47998,0.23996l-0.47998,0.23996l-0.71994,0.479919l-0.47998,0.959839l-0.47998,2.399567l0,0.719849l0,0.479919l0.23999,0.23996l0.23999,0l0.71994,0l-0.23999,0.479919l0,0.23996l-0.71994,0l0.71994,1.439728l1.679932,2.159637l0.23999,0.23996l0,0.23996l0,1.439728l0,0.23996l0.23999,0.719879l1.439911,1.679688l2.879883,2.879486l2.159882,1.919647l2.159882,1.439758l0.959961,0.719879l1.919922,1.679688l3.359833,4.079285l0.719971,0.479919l1.439911,0.479889l0.959961,0.23996l0.23999,0l0.23999,0l1.439911,-0.479919l7.679657,-0.239929l2.159882,-1.199799l3.839813,-0.479919l0.719971,0l1.439911,0.23996l1.199951,0l0.47998,0l1.199951,0.479919l0.95993,0.23996l0.47998,0.23996l0.23999,0.479919l0.47998,0.959808l0.719971,1.439758l0.47998,0.959839l0.23999,1.919647l0.23999,1.199768l0.47995,1.919678l0.47998,1.919647l0.23999,0.959839l0.719971,1.199768l0,0.479919l0.23999,0.719879l0,0.479919l0.23999,0.719849l0,0.23996l0.719971,0.479919l0.47998,0.719879l0.71994,1.919647l0.47998,0.479919l2.159912,4.559174l0,0.479919l0,0.23996l0.959961,0.959839l1.199951,1.679688l0.71991,1.679718l0.47998,1.439728l0.23999,0.719879l1.679932,2.639526l0.47998,0.719879l2.639893,5.279053l0.719971,0.959839l0.23999,0.23996l1.199951,-0.479919l0.479919,0.479919l-0.71991,0.23996l-0.23999,0.23996l0,0.959808l-0.23999,0.719879l0,0.23996l0,0.23996l-0.47998,0.479919l-0.47998,0.239929l0,0.23996l0,0.23996l0.23999,0.479919l0.23999,0.959839l-1.679932,0l-0.23999,0.719849l-2.639893,-0.23996l-0.719971,0.959839l0,0.23996l0.23999,0.23996l0.47998,0l0.23999,0.23996l0.719971,0.719879l0,0.23996l1.439941,0l0,1.919647l0.47998,0l-0.23999,3.119446l-0.959961,0.959839l-4.319763,3.599335l-1.199951,-0.479889l-5.279755,4.319214l-5.759735,5.039093l-0.23996,0.959839l0.47995,0.719879l-3.359833,3.359406l-1.439911,1.679688l0.23996,1.199768l-4.319763,0.479919l-11.039459,1.439758l0.23999,0.959839l3.839813,-0.23996l0,-0.479919l0.719971,0l0,0.23996l8.879547,-0.959839l0.47998,1.199799l-0.959961,0.23996l0.23999,0.479889l-3.599823,0.719879l-0.719971,0.479919l0.240021,0.23996l0,0.23996l0.47995,0l0.959961,0l3.599823,-0.959839l3.599823,-0.719879l2.159912,-0.479889l0.95993,-0.23996l0.719971,0l0,-0.479919l3.839813,-0.479919l2.159912,-0.23996l0.47995,0.959839l1.199951,0l2.639893,0l6.719666,-3.839325l3.119812,0.959839l-0.719971,2.159607l-0.71991,2.399567l-0.719971,3.359406l-0.959961,4.079285l-0.719971,2.399567l-0.23999,0.719849l0,0.479919l-0.23999,0.479919l0,0.719879l-0.23999,0.23996l-1.199951,0l-1.199951,0.479919l-0.959961,0l-6.719635,1.439728l-2.879883,0.719879l-2.399872,0.479919l-1.919891,0.23996l-2.879883,-0.479919l-1.919891,0l-1.919922,-0.479919l0.719971,-0.959839l-12.719391,-2.159607l-23.75885,-4.319214l-18.959045,-3.359406l-5.759735,-0.959839l-8.159607,5.998932l-6.719666,4.799133l0,0.23996l0.23999,0.23996l0.23999,0l0.47998,0.23996l5.039764,0l-0.23999,1.919647l-5.999725,0l-0.71994,0.23996l-0.23999,0.23996l0,2.159637l0,0.23996l0.23999,0l0.23999,0.239929l0.23999,0l6.239685,0.23996l0,1.919678l-1.919922,0l-0.23999,0l-0.23999,0.23996l-0.47998,0.479889l0,0.479919l0.23999,0.23996l0,0.23996l0.23999,0l0.23999,0l3.839813,0.23996l7.679626,0l0.47998,0.23996l0.23999,0.23996l0,1.199768l0.959961,0.23996l0,1.439758l-0.47998,0l-0.23999,0l0,0.23996l-0.23999,0.23996l0,1.439728l0.23999,0.23996l0.719971,0l0,1.439728l-0.719971,0l-0.23999,0l-0.23999,1.439758l0,0.479919l0.23999,0l0.719971,0.23996l0,1.679688l-9.599548,0l-0.719971,0l-0.47998,-0.23996l-0.71994,0l-0.47998,-0.23996l-0.23999,0l-2.639893,-1.439728l-0.47995,-0.23996l-0.719971,0.23996l-0.719971,-0.479919l-0.719971,-0.23996l0,-0.719879l-2.879852,-1.439728l-3.599823,-1.439758l-3.359833,-1.199768l-0.959961,-0.479919l-4.559784,0l-13.439331,0l-1.199951,0.23996l-0.47998,0l-0.23999,0.23996l-0.47998,0.23996l-0.47998,0.23996l-0.47995,0.23996l-0.23999,0.479889l-0.23999,0.23996l-0.23999,0.479919l-0.47998,0l0,1.199799l2.399872,0.719849l0.47998,0l3.359833,0.479919l0.47998,0.479919l0.719971,0l-0.23999,0.959839l-0.719971,-0.23996l-0.95993,0.479919l-1.439941,-0.23996l-1.919922,-0.23996l-2.399872,0l0,6.478851l6.239685,0.239929l0,0.959839l-3.599823,0l-1.919891,0.23996l0,3.359406l1.919891,0.23996l0,1.439728l-1.919891,0.23996l-0.23999,2.159607l2.639862,0.23996l1.679932,0.479919l-0.47998,0.479919l0.719971,0.479919l-2.639893,0.23996l-0.719971,0.23996l-1.199921,2.879486l-0.23999,0.719849l0.47998,0.23996l1.919891,0.479919l0,0.719879l-0.959961,0.23996l-1.679901,0.23996l-1.679901,0l0,4.079254l2.399872,0.23996l1.439911,0l-0.23999,0.959839l-0.95993,0l-2.399872,0.23996l-0.23999,0l0.23999,2.639526l3.359802,-0.23996l0.23999,1.439758l-2.639862,0.23996l-1.199921,0.239929l0.23999,0.479919l0,0.23996l1.679901,0l2.639862,-0.23996l0.23999,-0.479919l1.439941,-0.479889l2.399872,2.879486l6.719666,7.1987l-1.679901,0.479919l-5.519745,-5.998932l-1.919891,-1.919647l-0.719971,-0.23996l-0.23999,-0.23996l-0.47998,0.23996l-4.319763,1.439728l-0.23999,0l0,0.23996l0.23999,1.679718l2.639862,11.038025l0.23996,0.23996l0.47998,0l5.279755,-1.919678l9.119568,-3.359406l2.399872,1.919678l0.719971,0.479919l1.439941,-0.479919l1.439911,1.199799l0.959961,0.959808l-0.719971,0.23996l0.719971,0.719879l1.439911,-0.479919l1.199951,0l0.47998,0.479919l0.719971,0l0.719971,0.959808l-0.47998,0.23996l0.23999,0.479919l-0.47998,0.23996l0,0.479919l0.23999,0.479919l0.47998,0.23996l1.679901,-0.23996l0.719971,0l0.23999,0.479919l0.47998,0.479919l0.959961,0.479889l0.47998,0l2.399872,1.919678l2.639862,1.919647l-0.47998,1.679688l-6.959656,5.998932l-0.719971,0.719879l-7.679626,4.079285l5.759735,4.799133l6.239685,-1.199799l0.23999,0.23996l0,0.23996l0,0.23996l-0.47998,0.719879l-11.75943,2.399567l-0.95993,1.919647l-1.199951,-0.479889l0.719971,-1.919678l-0.959961,-0.23996l-1.199951,2.399567l2.639893,0.959839l2.879852,4.799164l1.679901,0.479889l0,0.719879l1.199951,0l0,0.23996l5.519745,-0.23996l1.199921,-0.23996l7.199646,0.23996l0.719971,0.23996l0.47998,0.23996l0.47998,0.23996l-0.47998,0.23996l-0.47998,0.23996l-0.719971,0l-9.119537,-0.23996l-0.719971,0l-0.47998,0l0,0.23996l0,0.239929l0.23999,0l2.399872,0.23996l4.559784,1.679718l1.679932,0.719879l1.679901,0.479919l-0.959961,2.639526l-1.679901,5.039063l-2.639862,0.71991l-0.23999,0.719849l-1.679932,-0.239929l-0.719971,0.239929l-1.199921,3.359436l-1.439941,0.479919l-1.199951,-1.919678l-0.71994,-0.479919l-0.719971,-0.71991l-1.919922,-3.359375l9.839539,-1.439758l1.439911,-0.959778l0,-0.23999l0.23999,-0.239929l0,-0.23999l0,-0.239929l0,-0.23999l-0.47998,-0.479919l-4.319763,-2.879456l-7.919647,0l-0.47995,3.359375l-0.959961,0l0,-0.719849l-0.959961,0l-0.71994,-5.279083l-0.23999,-0.239929l-2.639893,-0.479919l-0.47998,0.959808l-1.679901,0l-0.23999,0l-1.199951,-0.479889l-0.23999,0l-0.719971,0.959808l-0.23999,0.479919l-0.23999,1.439758l-0.23999,0.239929l-0.47995,0.23999l0,0.479919l-0.23999,0.479919l0,0.479858l0,0.959839l0,0.23999l-1.439941,0.239929l0.959961,1.919678l0.95993,0l0.719971,1.919678l0.719971,0l1.199951,1.679688l0.719971,0.239929l0,0.959839l0,0.239929l0.47998,0.47998l0,0.239929l0,0.479919l-0.23999,0.479919l0,0.239929l0,0.23999l0.23999,0.239929l0.23999,0l0.23996,0.23999l0.23999,0.479919l0.47998,0l0.23999,0.239929l0.23999,0l0.47998,0l0.959961,0l0.959961,0.479919l0.71994,0.239929l0.959961,0.23999l2.879852,0.959839l2.639893,1.199768l0.47995,0.719849l-0.71994,0.479919l0.47998,0.71991l0.71994,-0.23999l1.679932,0.71991l1.919922,1.679688l3.359833,2.159607l-0.47998,0.479919l3.119843,2.159607l3.839813,0.719849l0.959961,0.479919l0.47998,0.479919l2.159882,0.959839l1.679932,0.719849l0.71994,0.479919l0.719971,0.479919l0.47998,0.23999l0.47998,0.239929l0.23999,0.719849l0.23999,0.71991l0.23999,0.239929l0.47995,0.23999l0.47998,0l1.679932,0.479919l6.719666,3.839294l2.399872,1.439758l0.23999,0.719849l-1.679901,0.959839l1.679901,2.639526l1.199951,2.159607l0.719971,0.719849l0.719971,0.479919l0.47998,0.23999l3.839813,2.159607l0.959961,-0.479919l0.23996,-0.239929l0.719971,0l0.47998,0l0.23999,0l0.23999,0.239929l0.47998,0.23999l5.999695,3.599304l1.679932,1.199829l1.679901,1.199768l1.679932,1.199768l1.679901,1.439758l2.639893,2.399597l6.719666,5.279053l1.679901,1.199768l1.679932,0.959839l1.439941,0.959839l3.119843,1.919617l0.719971,1.199829l10.559479,5.998901l1.439941,1.199768l3.359833,1.919678l1.199921,3.359375l0.47998,0.479919l5.519745,3.839355l0.47998,0.239929l0.23999,0.23999l0.719971,0.239929l11.759399,4.799133l5.999695,3.359436l0.959961,0.479919l0.719971,0l0.959961,0.239929l1.199951,0.239929l2.879822,0l2.639893,0l1.679932,-0.239929m-546.453397,-52.310669l1.9199,-0.23999l2.87986,-0.479858l1.19994,-0.23999l0.95996,0l0.47997,0l7.67963,0l3.359839,0l3.839809,0.479919l1.67992,0l4.559771,0.479919l2.87986,0.479919l5.759722,1.199768l2.87986,0.719849l1.919907,0.47998l5.759724,1.439697l7.439636,2.159607l0.959953,0.479919l2.63987,0.479919l0.959949,0.23999l0.959961,0.239929l0.959949,0.239929l1.91991,0.71991l5.279736,2.159607l6.479683,2.159607l4.079803,1.679688l2.159897,0.959839l3.839813,1.679688l1.919907,0.479919l2.159889,0.959839l2.63987,1.199768l2.399887,1.439758l5.279747,2.399597l3.839806,1.919617l2.159904,0.959839l2.87986,1.919678l5.039749,2.879456l2.399879,1.199829l0.959961,0.479919l0.959946,0.479919l1.439934,0.959778l3.11985,2.399597l4.799759,3.359375l3.599831,2.639526l2.399872,1.919678l3.599838,3.119446l2.159882,1.679688l0.47998,0.479919l0.47998,0.23999l0.719971,0.479919l5.51973,3.119446l2.159897,1.199768l2.159882,1.439758l11.99942,8.638428l11.039459,7.43866l9.119553,4.799194l1.919922,0.719849l1.199936,0.479919l0.719955,0.239929l2.639877,0.71991l1.439941,0.239929l0.719955,0l1.919907,0l9.119553,-0.239929l0.959961,0l0.959946,0l0.959946,0l0.959961,-0.23999l7.679626,-1.919617l0.959946,-0.23999l1.199951,-0.239929l1.439926,-0.71991l3.119843,-0.959839l3.599838,-1.439697l2.879852,-1.439758l4.559784,-1.919678l1.439911,-0.719849l1.199951,-0.71991l0.959961,-0.719849l0.47998,0l0.479965,-0.239929l0.719971,-0.23999l1.919907,-1.679688l0.719955,0l0.959961,-0.23999l0.959961,-0.719849l1.919891,-1.679688l-0.719955,-0.719849l3.119843,-1.679749l5.279739,-3.119446l0.47998,0.23999l1.919907,-0.959839l1.199936,-0.479919l0,-0.479919l-0.23999,-0.239929l-0.239975,-0.71991l23.27887,-17.756836l7.199646,-5.518982l7.199646,-4.799133l7.919617,-4.799194l6.719666,-3.839294l17.519135,-9.838257l13.679352,-8.158508l0.959961,-0.479919l0.71994,-0.479919l1.199951,-0.719849l7.199646,-3.599365l15.359253,-9.358337l8.639587,-4.799133l3.599823,-1.199829l1.199951,-0.719849l0.95993,0l0.47998,-0.23999l0.23999,0l0.47998,-0.239929l5.759705,-3.359375l1.199951,-1.439758l0.959961,-0.479919l-0.959961,-0.959839l-1.679901,-5.518982l-0.23999,-0.479919l-0.47998,-0.71991l-0.719971,-0.959839l-2.639893,-2.639526l-0.71994,-0.479919l-0.23999,0l-0.719971,0l-0.23999,0l-0.23999,0.23999l-0.47998,0.239929l-0.47995,0l-0.719971,0l-0.47998,0l-0.719971,0l-0.719971,-0.239929l-0.719971,0.959839l-0.23999,0.479919l0,0.239929l0,0.719849l0.959961,0.71991l0,0.239929l0,0.23999l-0.23999,0.479919l0,2.159607l-0.959961,0.719849l-0.71994,0.71991l-4.559784,0.479919l0.47998,3.359375l-0.23999,0.719849l-1.439941,1.439758l1.199951,0.719849l0.23999,2.399597l-4.559784,3.359375l-0.47998,0.23999l-0.47998,0l-5.519714,1.199768l-5.039764,-0.239929l-2.639862,0l-1.439941,0l-3.359833,0.239929l-4.559784,-1.919617l-2.879852,-1.439758l-3.839813,2.159607l-1.439941,0.479919l0,-0.23999l0,-0.239929l-0.23999,0l-0.23999,0l-1.199921,0.719849l-0.47998,-0.959839l-1.199951,0.479919l-3.839813,-1.439697l-1.919891,-0.959839l-3.839813,-1.439758l-3.119843,-1.199768l-0.23999,0l-0.23999,-0.23999l0,-0.239929l0,-0.23999l0,-0.239929l-0.47998,0l-1.679932,-0.23999l-3.359833,-1.439697l-0.47998,-0.479919l-0.47998,-0.479919l-0.47998,-0.23999l-0.71994,-0.239929l-0.719971,-0.239929l-0.719971,0l-0.47998,0l-0.95993,0l-0.719971,0l-0.23999,0.239929l-0.47998,0.479919l-0.47998,0.239929l-0.23999,0.479919l-0.23999,0.479919l-0.719971,1.679688l-0.23999,0.479919l-0.47995,0.479919l-0.47998,0.479919l-0.719971,0.479919l-1.439941,0.719849l-0.959961,0.479919l-0.47998,0.23999l-0.47995,0.239929l-0.47998,0.479919l-0.23999,0.71991l-0.47998,0.239929l-0.959961,0.479919l-0.71994,0.239929l-3.839813,0.71991l0.23996,0.959839l1.679932,1.439697l-0.719971,0.23999l-3.119843,-1.919678l-0.23999,0l-0.23999,-0.239929l-0.47998,0l-0.23999,0l-0.47998,0l0,0.239929l0,0.23999l0.23999,0.239929l0.23999,0.239929l1.439941,1.199829l-0.23999,0.239929l-0.959961,-0.239929l-4.799744,-2.159607l-1.199951,-0.23999l-0.959961,-0.239929l-0.719971,0l-0.71994,-0.23999l-0.719971,0l-0.719971,0.23999l-0.719971,0l-0.47998,0.239929l-0.719971,0l-0.719971,0.23999l-0.47995,0.239929l-0.47998,0.479919l-0.47998,0.239929l-0.47998,0.479919l-1.199921,1.439758l-1.919922,2.159607l-2.399872,2.159607l-5.759735,4.319275l-6.2397,4.799133l-0.479965,0.239929l-0.23999,0.23999l-0.47998,0.239929l-3.599823,1.439758l-0.719971,0.23999l-1.439926,0.239929l-2.399887,0.239929l-0.959946,0.23999l-0.47998,0l-0.959946,0l-0.959961,0l-0.479965,-0.23999l-0.47998,0.23999l-0.47998,0l-0.47998,0.239929l-0.23999,0l-0.719971,0.479919l-0.479965,0.23999l-0.47998,0l-0.23999,0l-0.47998,0l-0.239975,0l-0.719971,-0.479919l-1.679916,0.239929l-0.719971,0l-0.47998,0l-3.359818,-0.479919l-8.879578,2.399597l-0.719971,0l-0.479965,0l-0.47998,0.239929l-0.719955,0l-0.47998,0.23999l-0.47998,0.239929l-0.47998,0.23999l-4.079803,0.959778l-0.959946,0.23999l-0.719971,0l-0.47998,0l-1.439926,0l-0.959946,0l-0.47998,-0.23999l-0.719955,0.23999l-0.719971,0l-5.279739,0.479919l-0.47998,0l-0.47998,0.239929l-0.23999,0l-0.47998,0.23999l-0.23999,0.239929l-0.719955,1.199829l-0.47998,0.479919l0,0.239929l-0.23999,0.239929l0,0.23999l0.23999,0.239929l-0.719971,0.23999l-0.239975,-0.23999l0.239975,-1.439697l0,-0.479919l0,-0.71991l0.719971,-1.439758l0,-0.479858l0,-0.23999l-0.23999,-0.239929l-0.47998,-0.23999l-0.719955,0l-1.439926,1.199768l-0.23999,0l-0.23999,0.23999l-0.23999,0l-0.23999,-0.23999l-1.919907,-0.479858l-0.719955,0l-0.719971,-0.23999l-0.719955,0l-1.199951,0l-0.959961,0l-1.439926,0.23999l-0.959946,-0.23999l-0.47998,-0.239929l-0.47998,0.239929l-0.239975,0l-3.599838,1.439758l0.23999,-0.479919l-0.719955,0l0,0.239929l-0.23999,0.23999l-0.23999,0.239929l-0.47998,0.23999l-0.23999,0l-0.23999,0l1.199951,-2.399597l0,-0.239929l0,-0.23999l-0.23999,-0.479919l-0.47998,-0.239929l-0.47998,-0.23999l-0.479965,0l-0.47998,0l-0.719971,-0.239929l-0.959961,0l-0.479965,0l-0.959961,0l-5.039749,0.239929l-2.639877,0.23999l-2.159897,0.479919l-0.239975,-3.359375l2.159897,-0.23999l0.239975,-0.479919l4.319794,-0.719849l2.639877,-0.23999l1.919907,0l5.279739,0.479919l1.439926,0l1.679916,0.23999l5.519745,1.199768l0.959946,0.239929l0.719955,0l1.679916,0l1.199951,0l0.479965,0l0.23999,0l0.47998,0l0.23999,0l0.47998,0l0.23999,0.23999l0.23999,0.239929l0,0.23999l0,0.239929l-0.23999,1.439758l0,0.239929l0.23999,0l0.23999,0.23999l0.239975,0l0.47998,0l0.959946,0l0.719971,-0.959839l0.959961,-1.439758l0.23999,-0.239929l0.23999,-0.23999l0.47998,0l4.559769,-0.479858l3.119843,-0.23999l1.199936,0l0.719971,0l0.959961,-0.23999l0.959946,-0.239929l0.719971,-0.239929l0.719955,-0.23999l0.23999,0l2.639862,-0.479919l0.719971,-0.239929l0.719955,-0.23999l0.719971,-0.239929l0.47998,0l2.879852,-0.479919l0.719971,-0.23999l0.47998,0l0.479965,-0.239929l0.47998,-0.239929l1.919907,-1.199829l0.719971,-0.479919l0.719971,-0.239929l0.959946,0l0.47998,0l0.719955,0l7.919617,-0.23999l2.399887,0.71991l0.23999,0l0.479965,0l0.719971,0l0,-0.23999l0.23999,0l0.23999,-0.239929l0.23999,-0.479919l1.919907,-1.199768l2.639862,-1.919678l3.119858,-2.639526l-0.47998,-0.959839l4.559784,-0.959839l0.23999,-0.239929l0.23999,0l0,-0.23999l-0.23999,0l-0.719971,-0.479858l-1.199951,0.479858l-2.399872,0.23999l-0.47998,-0.23999l-0.47998,0l-0.719955,0.23999l-0.23999,-0.23999l0,-0.239929l0,-0.239929l0.23999,0l0.47998,-0.23999l0.239975,-0.239929l0,-0.23999l-0.239975,-0.479919l4.319778,-1.679688l0.959961,-0.23999l0.23999,-0.239929l1.199936,-1.439758l0.23999,-0.479919l0,-0.479919l-0.23999,-0.959778l0,-0.23999l-0.23999,-0.239929l0,-0.23999l-0.23999,-0.239929l-0.23999,0l-0.239975,0l-0.23999,0.239929l0,0.71991l-1.199951,0.239929l-0.719971,0.479919l-1.199936,-0.239929l-1.199936,-0.23999l-1.439926,-0.959839l0.479965,-0.239929l0,-0.23999l0,-0.719849l-0.479965,-0.479919l-0.23999,0l-0.47998,-0.479919l-0.47998,-0.479919l-0.719971,-0.719849l-1.199936,-0.71991l-1.199936,-0.719849l-1.439926,-0.479919l-1.679932,-0.239929l-1.919907,-0.959839l-0.719955,0l-0.719955,-0.23999l-0.959961,-0.239929l-1.199936,0l-0.959961,0l-1.679916,0l-5.279739,-0.479919l-2.159897,-0.719849l-0.719955,-3.359436l0,-0.239929l0.239975,-0.23999l0.23999,-0.239929l0.23999,0l9.359543,-0.23999l3.119843,1.679749l8.159607,1.199768l0.959961,0.239929l0.959946,0.23999l0.959961,0.239929l0.719955,0.23999l0.719971,0.479919l0.719971,0.239929l1.439926,0.959839l1.679916,0.959839l1.439926,0.959839l0.959961,0.719849l1.919891,1.679688l0.23999,0l0.47998,0.23999l0.47998,0.239929l0.719971,0.23999l0.47998,0l0.71994,0l0.719971,-0.23999l0.719971,0l0.47998,-0.239929l0.47998,-0.479919l3.599823,-2.879517l0.23999,-0.239929l0.719971,-0.23999l0.47998,0l2.159882,0.23999l2.879852,0.239929l5.279755,0l1.439941,0l0.95993,0l0.719971,0l0.47998,0.23999l0.959961,0.239929l2.399872,0l0.47998,-0.959839l-0.23999,-0.239929l-0.23999,-0.23999l-3.119843,-7.43866l0,-0.239929l0,-0.23999l-0.47998,-0.239929l-0.23999,0l-0.47998,-0.23999l-0.719971,-0.479919l-1.679901,-0.719849l-1.919922,-0.959839l-0.47998,-0.239929l-0.47995,-0.23999l-0.23999,-0.239929l-0.23999,-0.23999l-0.23999,-0.239929l0,-0.23999l0.23999,-0.719849l0,-0.719849l0,-0.959839l0.47998,-0.239929l0.71994,-0.23999l0.719971,0l1.919922,0l4.559753,-0.719849l5.759735,-0.71991l2.399872,-0.239929l2.159882,-0.479919l0.959961,0l0.959961,-0.23999l0.719971,0l0.71994,0.23999l0.959961,0l3.599823,0.719849l0.719971,0l0.719971,0l1.439941,0l0.95993,-0.239929l0.719971,-0.23999l0.959961,-0.239929l1.439911,-1.199768l0.719971,-0.23999l0.719971,0l0.47998,-0.23996l0.47998,0l1.439941,0l0.71994,0l1.439941,-0.239929l1.199951,-0.23996l0.95993,-0.23996l0.23999,0l0.719971,0l0.47998,0l0.959961,0.23996l2.879852,1.919617l1.439941,3.359436l1.199921,5.758972l0,0.239929l-0.23999,0.479919l0,0.479919l-1.439911,1.679688l0.719971,0.71991l0.71994,-0.23999l0.719971,-0.719849l1.439941,-1.439758l0.719971,-0.479919l0.23999,0l0.47995,-0.239929l0.719971,-0.23999l0.47998,0l5.519745,-1.679688l0.95993,-0.479919l0.959961,-0.239929l0.47998,-0.23999l0.47998,-0.479919l1.199951,-0.719849l-0.47998,-0.479919l0.719971,-1.199768l0.95993,0l0.23999,0l0.47998,-0.23999l0.47998,0l0.719971,-0.479919l0.71994,-0.719849l2.399902,-2.399597l0.23999,-0.239929l0.959961,-1.439728l0.71994,-1.679718l0.719971,-1.439758l1.919922,-4.079254l1.679901,-4.559204l0.47998,-1.439728l0,-0.959839l0.23999,-0.959808l0.23999,-3.119446l-0.23999,-0.719879l-0.23999,0l0.959961,-1.919647l0,-0.479919l0,-0.23996l-0.23999,-0.959839l-0.23999,-0.719879l-1.199951,-1.919647l-0.95993,-1.679688l-0.23999,0l-0.23999,0l-0.23999,0l-0.23999,0.23996l0.23999,0.23996l0,0.239929l0.47998,0.479919l0,0.23996l-0.23999,0l-0.23999,0l-0.23999,0l-0.23999,0l-0.719971,-0.959808l-0.959961,0l-1.439911,-1.199799l-2.639893,-1.679688l-1.439911,0.23996l-4.319794,2.639526l-1.439941,-0.479919l-0.47998,0l-1.919891,-1.199799l-0.47998,-0.23996l-5.759705,-3.119446l-0.719971,0l-0.23999,0l-1.199951,0l-0.23999,0.23996l-0.47998,-0.23996l0.719971,-1.439728l-13.199341,-6.958771l-2.159912,-1.679688l-0.719971,0.23996l-0.47998,0l-0.71994,0l-0.47998,0l-0.959961,0l-2.879852,-1.439758l-0.23999,-1.679688l0,-0.23996l0.47998,-0.479919l1.199921,-0.479919l0.47998,-0.23996l4.559784,-1.679688l0.719971,-0.23996l2.399872,-0.719879l1.679932,-0.23996l0.719971,-0.719849l0.23999,-0.23996l0,-0.479919l-0.23999,0l-0.719971,-0.959839l-0.47998,-0.479919l-0.47998,-0.479919l-0.23999,-0.23996l-0.959961,-0.959808l-0.47995,-1.199799l-0.23999,-0.23996l-0.23999,-0.23996l0,-0.239929l1.199921,0l1.679932,-0.23996l0.23999,-0.23996l0,-0.23996l-0.23999,0l-0.23999,-0.23996l-0.959961,0l-5.279724,0.23996l-3.839813,0.23996l0.23999,-1.679718l0.23999,0l0.95993,-4.319214l-0.719971,-0.23996l0.719971,-2.879486l0.23999,0l0.47998,-1.679688l-0.47998,-0.23996l0.23999,-1.919678l-0.23999,-1.919647l0.47998,-0.959839l0.23999,-0.479919l0.23999,-0.479889l0,-0.719879l0,-0.959839l0.23999,-1.679688l0,-0.719879l-0.47998,-0.479919l-0.47998,-0.23996l-0.23999,-0.23996l-5.279724,0l-0.959961,0.23996l-0.23999,0l-0.23999,0l-0.23999,0.23996l-0.959961,2.159607l-2.399872,0l-0.23999,-2.159607l-0.719971,0.23996l-1.199951,0.23996l-0.47995,0l0,-0.23996l-0.959961,-0.23996l-0.23999,0.719879l-0.23999,0.23996l-0.47998,0.23996l-0.47998,0.239929l-0.23999,0l-0.23999,0l-1.919891,0l-0.959961,0l-0.719971,0.23996l-0.23999,0l-0.47998,0.23996l-0.95993,1.199799l-1.439941,0.719879l-4.559784,-0.23996l-0.47995,0l-0.959961,0.479919l-0.47998,0.479919l-0.959961,0.23996l-1.199951,0l-0.71994,0.239929l-0.959961,0l-0.719971,0l-0.47998,0.23996l-0.23999,0.23996l-1.439941,0.23996l-2.159882,0.479919l-1.439911,0.23996l-0.719971,0.23996l-3.119843,0.479919l-2.639893,0.479889l-0.23999,0l-0.47998,-0.23996l-0.47998,0l-0.23996,0l-0.23999,0l-0.959961,0l-0.719971,0l-3.119843,-0.479889l-2.879868,-0.23996l-0.23999,0l-0.479965,0l-4.079803,0.719849l-0.23999,0.23996l-0.23999,-0.23996l-1.439926,0.23996l-1.199936,0l-0.959946,0.23996l0,0.479919l-0.719971,0l-0.23999,0.23996l-0.47998,0.23996l-0.23999,0l-0.959961,0.479919l-0.479965,0.479919l-0.719971,0l-0.23999,0l-0.239975,0l0,1.199768l-0.47998,0l0.719955,0.959839l-0.479965,0l-0.719971,-0.719879l-0.479965,0.23996l1.199936,1.199799l-1.439926,0l-0.23999,0l-1.199951,0.23996l-0.719971,0.23996l-0.23999,-0.23996l-0.239975,0l-0.47998,-0.23996l-0.47998,-0.479919l-0.479965,-0.23996l-0.23999,0l-0.47998,0l-0.47998,-0.23996l-0.239975,0l0,-0.23996l-0.23999,-0.23996l0,-0.23996l0,-0.23996l-0.23999,0l-0.47998,0l-0.23999,0l0,0.23996l0.47998,0.959839l-0.47998,0l-0.23999,-0.479919l-0.959961,0l-0.959946,0l-0.959946,0.23996l-0.959961,0.23996l-0.959946,0l-0.719971,0.23996l-0.23999,0.23996l0,0.23996l-0.23999,0.719849l-0.23999,0.23996l0,0.23996l-0.47998,0.23996l-0.959946,0l-0.47998,0l-0.479965,-0.23996l-0.47998,-0.23996l-0.23999,-0.23996l0,-0.239929l-1.199936,-1.199799l-0.23999,-0.23996l0,-0.23996l0,-0.479919l0.23999,-0.23996l0.959946,-0.479889l0.719971,-0.23999l0.23999,-0.239929l0.479965,-0.23996l0.23999,0l0.23999,0l0.23999,0l0.23999,-0.23996l0.23999,-0.479919l0.239975,0l0.719971,-0.479919l0.719971,-0.23996l0.47998,0l0.479965,-0.23996l0.719971,-0.479919l0.719971,-0.479889l0.479965,-0.479919l0.959961,-0.479919l0.479965,-0.479919l0.47998,-0.23996l0.719971,-0.479889l0.47998,-0.23996l0.47998,-0.23996l0.959946,-0.23996l0.23999,-0.23996l0.47998,-0.23996l0.479965,-0.719879l0.23999,-0.23996l0.23999,-0.23996l0.47998,0l0.239975,0l0.23999,-0.479919l0.23999,-0.23996l0,-0.23996l-0.23999,-0.479889l-0.23999,-0.23996l-0.239975,-0.479919l0,-0.23996l-1.199951,-1.199768l-0.479965,-0.479919l-0.23999,-0.23996l-0.47998,0l-0.23999,0.23996l-0.239975,0l-0.719971,0l-0.47998,-0.23996l-0.23999,-0.23996l-0.47998,-0.23996l-0.719955,-0.23996l-0.719971,-0.23996l-0.47998,0l-1.199936,0l-0.23999,0l0,-0.959808l1.439926,-2.639557l0.23999,-0.23996l0.719971,-0.23996l3.599823,-1.439728l1.199936,-0.479919l2.879868,-1.199768l0.959961,0l0.479965,0l0.959961,0l0.239975,0l1.199951,0.719849l1.439926,0.959839l0.47998,0.479919l0.47998,1.679688l-0.47998,1.439758l0,0.23996l0,0.23996l0.23999,0.23996l0.23999,0.479889l0.23999,0.23996l0.23999,0l0.239975,0l0.719971,0.23996l0.23999,0l2.399872,-0.479919l0.959961,0l1.919907,0l1.439926,0.23996l3.119858,0.719879l2.159882,0.479919l1.199936,-0.719879l0.23999,-0.23996l0.23999,-0.479919l1.199951,-0.479889l0.47998,-0.23996l1.439911,-0.23996l1.919922,-0.719879l0.719971,-0.23996l1.199921,0.23996l1.439941,-0.23996l1.679932,-0.479919l0.71994,-0.23996l1.199951,-0.719879l0.959961,-0.239929l0.47995,-0.23996l1.919922,-0.23996l0.719971,0.23996l2.879852,0.23996l1.679932,0l0.719971,-0.23996l0.71994,0l1.679932,-0.23996l2.639862,-0.719879l1.199951,-0.23996l5.999695,-0.479919l1.919922,-0.23996l1.199921,0.959839l0.23999,0l0.47998,-0.23996l0.23999,-0.719879l2.879852,-1.199768l3.119873,-1.679718l0.95993,-0.479919l3.839813,-0.719849l0.47998,-0.23996l0,-0.23996l-0.95993,-0.719879l-1.199951,-0.719879l-1.919922,-0.959808l-3.119843,-1.439758l-1.679901,-1.199768l-0.959961,-0.479919l-0.47998,-0.479919l-2.159912,-1.679688l0,-0.23996l2.159912,-1.679718l0,-0.959808l-1.439941,-0.23996l0,1.199768l-0.47998,0.23996l-1.679901,-0.23996l-0.959961,-0.959808l0,-0.719879l0.23999,-0.23996l0.23999,-0.23996l0.23999,0l1.679901,0.23996l0.719971,-0.719879l-1.919891,-0.479919l-0.23999,0l-0.23999,0l-0.47998,0.23996l-0.719971,0.23996l-1.679901,0.23996l-0.719971,-0.479919l-0.23999,0l-0.47998,-0.23996l-1.439941,-0.23996l-2.399872,-1.439728l-0.959961,-0.479919l-3.119843,-1.439728l-2.159882,-0.959839l-0.959961,-0.719879l-4.319794,-3.599365l-3.839813,-3.119415l-2.399872,-1.919678l-1.439941,-1.199799l-1.919891,-1.679688l-0.47998,-0.479919l-0.47998,-0.23996l-1.919922,-1.199768l-6.71965,-4.079285l-8.639587,-5.519012l-0.719971,-0.479919l0.23999,-0.479919l0.719971,-1.199768l-2.399872,-1.679718l-0.23999,-0.239929l0,-0.23996l-0.959961,-0.479919l-2.879868,-1.919647l-1.199936,-0.479919l-0.23999,0l-0.239975,0l-0.719971,0l-3.119858,0.23996l-0.479965,-0.23996l-2.159897,-1.679718l-1.679932,-0.959839l-1.439926,-0.479889l-5.51973,-3.119446l-1.919907,-0.719879l-1.679916,-0.959808l-1.439926,-0.479919l-3.839813,-1.919678l-2.159897,-0.959839l-2.159897,-0.959808l-0.23999,-0.23996l-0.23999,0l-0.47998,-0.23996l-0.959946,0l-1.679916,-0.959839l-0.23999,-0.479889l-0.479965,0l-0.23999,0.23996l-0.23999,0l-1.439941,-0.23996l-0.47998,0l-0.239975,-0.23996l-0.47998,0.23996l-0.719971,0l-0.479965,0l-2.399887,-0.959839l-0.959961,-0.479919l-0.23999,-0.23996l-0.479965,-0.23996l-2.399887,-2.399567l-2.399887,-2.159607l-1.679916,-1.199799l-0.23999,-0.719849l-0.479965,-0.23996l-0.47998,-0.23996l-0.47998,0l-0.479965,0.719849l-0.719971,-1.199768l0,-0.479919l-0.23999,-0.719879l0.47998,-0.479919l0,-0.23996l-0.47998,-0.719849l0,-0.719879l0,-0.479919l0,-0.959808l0,-2.159637l0,-0.719879l-0.719971,-2.399567l-0.23999,-0.719849l-0.47998,-1.199799l-0.959946,-4.559204l-0.47998,-3.119415l-0.479965,-2.639557l-0.47998,-0.959808l-0.719955,-1.679718l-0.23999,-0.959808l0,-0.23996l-0.719971,-1.679688l-0.47998,-0.959839l-0.23999,-0.23996l0,-0.959839l-0.23999,-0.23996l-0.959946,-0.719879l-2.639862,-3.359375l-1.679932,-2.159637l-0.719971,-0.959808l-1.439926,-1.919678l-2.159882,-2.879456l0,-0.23996l0.23999,-0.719879l-1.199951,-1.439758l-0.23999,-0.479919l-0.47998,-0.479919l-0.23999,-0.719849l-0.719955,-1.199799l-1.199936,-3.359375l-0.719971,-1.679718l-0.719955,-1.919647l-0.23999,-0.719879l-0.719971,-1.439758l-0.719971,-0.959808l-0.47998,-0.479919l-0.23999,-0.23996l-0.719955,-0.479919l-0.959961,0l-2.159882,-0.479919l-1.439926,0l-0.959946,0l-0.719971,0l-1.679916,0.23996l-3.839828,0.23996l-1.199936,0l0,-0.479919l0.23999,0l0.47998,-0.479919l0.719971,-1.199768l0.23999,-0.479919l-0.23999,-0.23996l-0.959961,0.23996l-1.199951,1.199799l-0.239975,0.239929l-0.719971,0.23996l-0.23999,0.23996l-1.199936,0.23996l-2.159897,0.23996l-3.359833,0.23996l-0.47998,-0.23996l-0.239975,-0.23996l0,-0.479919l0.239975,-0.479889l0.719971,-0.479919l0.23999,-0.479919l1.679916,-0.23996l3.839813,-0.479919l0.47998,-0.23996l-0.23999,-0.479919l-0.47998,-0.479889l-1.199936,-0.719879l-0.23999,0l-1.199951,0.23996l-2.399872,0.23996l-2.399887,0.479919l-1.199951,0.239929l-1.199936,0.479919l-0.719971,0.23996l-0.479965,0.23996l-1.439926,0.23996l-0.47998,0.23996l-0.959961,0.479919l-0.47998,0.719849l0.47998,0.959839l0.23999,0.23996l0.23999,0.23996l-0.23999,0.23996l-0.23999,0.23996l-0.23999,0l-0.47998,0l-0.719955,-0.719879l-0.959946,-0.959839l-0.23999,0l-0.47998,-0.23996l-0.23999,0l-1.199944,0.23996l-8.159599,1.679718l-0.47998,0l-0.479965,0.23996l-2.639885,0.719879l-2.159889,0.23996l-2.159897,0.719849l-0.479973,0.23996l-1.439926,0.479919l-0.47998,0.479919l-1.199944,0l-0.47998,0.23996l-2.159889,1.199768l-0.47998,0.23996l-0.959946,0.479919l0,0.23996l-0.23999,0.23996l0,0.479919l-0.23999,0.23996l-0.719963,0.239929l-0.719971,0.23999l-1.439926,0.719849l-2.63987,1.439758l-0.23999,0.23996l-0.719963,0l-0.719971,0l-0.239983,0.23996l-0.479973,0.23996l0.23999,0.719849l-0.23999,0l-0.23999,0.479919l-0.23999,0.959839l-0.959953,0l-0.47998,0.23996l-0.479973,0.239929l-1.679916,0.719879l-0.959961,0.23996l0.23999,0.479919l-0.23999,0.23996l0,0.23996l-0.479965,0.23996l-0.719971,0.23996l-0.23999,0.23996l-0.479973,0.719879l-0.47998,0.479889l-0.47998,0l-0.239983,0.23996l-0.23999,-0.23996l0.23999,-0.959808l0.239983,-0.479919l0,-0.23996l-0.719955,0.23996l-0.23999,0l0.23999,-0.479919l0,-0.23996l0.479973,0l0,-0.479919l0,-0.23996l0.239983,-0.719879l0.47998,-0.23996l0.23999,0l0.23999,-0.239929l0,-0.479919l0.23999,-0.23996l-0.23999,-0.719879l0.23999,-0.23996l-0.23999,-0.479919l0,-0.479889l0.479973,0l0.23999,-0.23996l-0.479973,-0.479919l-0.23999,-0.719879l0.23999,-0.23996l0.959953,-0.479919l0.23999,-0.239929l0.959946,-0.23996l1.199944,-0.719879l0.719963,0l0.719963,-0.479919l0.959961,0.23996l0.239983,0l1.439926,-0.23996l1.439934,-0.23996l0.719971,0l0.479965,-0.479919l0.959961,-0.959839l0.719963,-0.239929l0.719971,-0.23996l0.23999,-0.23996l0.479965,-0.479919l0.47998,-0.23996l0.47998,0.719879l0.479973,0l1.199936,0l2.399895,-1.199799l0.719955,-0.479919l1.919914,-0.959808l0.959946,-0.23996l1.439934,-0.23996l1.679916,-0.479919l1.679924,-0.479919l1.199936,-0.23996l2.399879,-0.719879l10.319504,-3.119415l0.959946,-0.23996l2.159897,-0.719879l0.23999,-0.719879l0,-1.199768l0.23999,-0.23999l0.719955,-0.479889l-0.719955,-0.719879l-1.919907,-1.919647l-2.87986,-3.119446l-0.47998,-0.959839l0.47998,-1.679688l0,-0.479919l0,-0.479919l-0.23999,-0.479919l-1.679916,-1.439728l-0.959953,-0.959839l-4.559776,-2.399567l-1.199944,-0.719879l-0.719971,-0.959839l-0.239975,-0.479889l0,-0.23996l0.479965,-1.919678l0.47998,-0.479889l0.719963,0.23996l0.959961,-0.23996l0,-0.23996l-0.23999,-0.719879l0,-0.23996l0.47998,-0.23996l0.239975,0l0.23999,0l0.23999,0l0,0.23996l0,0.23996l0,0.719879l1.919914,0.23996l1.679909,0l0.23999,-0.23996l0.23999,0l0,-0.23996l0,-0.479919l0,-0.23996l-1.199944,-0.959839l-1.199936,-0.959808l0.23999,-0.479919l0.479965,-0.23996l0.719971,0.23996l0.479973,0.23996l0.23999,0.23996l0.47998,0.239929l0.47998,0.23996l0.239975,0.23996l0.959961,0.23996l0.959953,0l0.719971,0l0.719955,0l1.199936,-0.479919l0.719971,-0.479889l0,-0.23996l-0.719971,-0.719879l-0.479965,-0.23996l-0.959961,-0.479919l-1.919899,-0.479919l-0.47998,-0.479889l-0.23999,0l-0.719955,-0.23996l1.679909,-1.199799l0.47998,-0.479919l0.23999,0l0.719955,0.719879l0.719971,0l0.23999,0.479919l1.919907,0.23996l0,-0.719879l-0.23999,-0.23996l-0.719971,-0.719879l-0.959946,-0.719864l0,-0.23996l0,-0.719864l0,-1.919662l0,-0.959824l0.479965,-2.159622l0.23999,-0.959824l0,-0.719879l-0.479965,-0.719864l0,-0.479919l0,-0.959824l0.239975,-0.23996l0,-0.479919l0.23999,0l0.23999,0l1.439941,-0.239944l0,-0.479919l-0.23999,0l-1.679932,-0.23996l-0.239975,-1.199783l-0.47998,-1.199799l-1.439926,-2.159607l-0.47998,-0.23996l-0.23999,-0.959824l-0.239983,-0.479919l0.239983,0l0,-0.23996l0.23999,-0.479904l0.47998,-0.23996l-0.47998,-0.479904l-1.679924,-0.479919l-0.479965,-0.23996l-0.47998,-0.479919l-0.47998,-0.719864l-0.239983,-1.439743l-0.23999,-0.23996l-0.47998,-0.479919l-0.719955,-0.479904l-1.199951,-0.719879l-0.719963,-0.479919l-1.199936,-1.199783l-0.959953,-0.959824l-0.47998,-0.479919l-0.47998,-0.479904l-0.719955,-0.479919l-0.47998,-0.23996l-0.47998,-0.23996l-3.119843,-1.439743l-5.039757,-2.159622l-1.919899,-0.959808l-3.599846,-1.919662l-0.959946,-0.23996l-0.23999,0l-2.639862,-0.479919l-1.199936,-0.23996l-0.47998,0l-0.959961,-0.479919l-0.719963,-0.239944l-1.679916,-0.479919l-3.599831,-1.679703l-1.439934,-0.959824l-1.679909,-1.439743l-0.47998,-0.719864l-0.959961,-0.719879l-0.719948,-0.479919l-0.23999,-0.239944l0,-0.23996l0.47998,0.23996l0.959946,0.239944l0.479973,0.23996l0.47998,0l0.47998,-0.23996l0.23999,0l0.239983,-1.199783l0,-0.479919l-0.239983,-0.239944l-0.47998,-0.23996l-0.47998,0l-0.23999,0l-0.719955,0l-0.959953,0l-0.47998,0.23996l-1.679916,0.479904l-0.479973,0l-0.23999,-0.23996l-0.719971,-0.719864l-0.479973,-0.23996l-1.439926,0.23996l-0.23999,0l-0.719971,-0.719879l-0.479973,-0.23996l-0.23999,-0.719864l-0.23999,-0.23996l-0.479973,0l-0.719963,0l-0.47998,0l-0.23999,0.23996l-0.23999,0l-0.239983,1.439743l-0.23999,0.23996l-0.959953,0.23996l-1.439926,0.959824l-0.23999,0.23996l-0.719971,0.23996l-2.159889,0.959824l-3.11985,1.439743l-0.47998,0l-1.199936,0.719879l-0.959949,0.479904l-1.43993,0.479919l-1.91991,0.719879l-1.19994,0.479904l-1.19994,0.23996l-2.399879,0.23996l-0.959961,0l-2.63987,0l-2.159893,0l-2.63987,0.479919l-2.159897,0l-0.23999,0l-0.23999,0.23996l-0.239983,0l-0.47998,0.719864l0,0.239944l0.959953,0.959839l0,0.719864l-1.19994,-0.479904l-0.959953,-0.959839l-0.719967,-0.23996l-0.23999,-0.239944l-0.239983,0l-0.959957,0.479904l-1.67992,0.23996l-0.239983,0.23996l-0.47998,0.23996l-1.919907,1.439743l0,0.479919l-0.719963,0.479919l-0.719967,0.959808l-0.479973,0.23996l-0.23999,0.23996l0,0.239975l-0.47998,0.959808l-0.479969,-0.719864l-1.199949,-0.239944l-0.239981,0l0,0.479904l0,0.479904l0,0.23996l-0.239988,0.23996l-0.719971,0.719879l0,0.23996l0.23999,0.479904l0.23999,0l1.67992,-0.719864l0.239988,0.479904l0.719959,0.719879l-0.719959,0.719879l-0.719969,0l-0.959949,0.479904l0.479969,0.479919l0,0.479904l-0.239981,0.959839l-0.479979,0.719864l-0.23999,0.23996l-0.719961,0.479919l-0.479979,0.479919l-0.719971,0.239944l-1.19994,0l-0.959949,0.719879l-0.47998,0l-0.479971,0.239944l-1.43993,0.479919l0.23999,-0.23996l0.239981,-0.23996l0.47998,-0.239944l0.479979,-0.23996l0.959951,-0.959824l1.43993,-0.719879l0.239988,-0.23996l0.479971,-0.479904l0.23999,-0.479919l0.959959,-0.479919l0.239981,-0.23996l0,-0.23996l-0.239981,-0.239944l-0.239988,-0.23996l0,-0.23996l0.239988,-0.23996l0,-0.239944l0.479971,-0.479919l-0.719959,-0.23996l-0.23999,0l-0.23999,-0.23996l-0.23999,-0.23996l-0.23999,-0.479904l0.23999,-1.199799l-0.23999,-0.479904l-0.959949,-0.719864l-0.23999,-0.239975l0.23999,0l0,-0.23996l1.43993,-1.199768l0.719969,-0.719879l0.239981,-0.479919l0.719971,-0.959824l-0.959951,-0.959839l-0.479979,-0.479904l-0.719971,-0.959824l-1.19994,-2.159622l-0.23999,-0.23996l-0.239981,0l-0.479979,-0.479919l-0.959951,-0.239944l-0.959959,0l-4.799761,-0.959824l-3.59983,-0.719879l-1.19994,0l-0.23999,0l-0.71996,0l-4.0798,1.199783l-2.87986,1.199783l-0.71997,0l-0.71996,0.23996l-3.59983,0l-0.71996,0l-3.35984,0.23996l0.95996,-79.425827l0.23998,0.479919l0.23999,0l0,0.479904l0.23999,-0.239944l2.39988,-0.479919l1.67992,-0.23996l1.19994,0l0.47998,-0.23996l-0.23999,-0.23996l-0.71996,-0.719864l-0.71997,-0.719879l-0.23999,-0.23996l0.47998,-0.479904l0.95995,-0.719879l0.47998,-0.479904l0.23999,-1.199799l0.47997,-1.199783l0,-1.919655l0,-0.959831l0.23999,-0.479912l0.23999,-0.23996l0.71997,-0.959824l0.47997,-0.479912l0.95996,-0.719872l2.159891,-0.959831l0.239989,-0.23996l0.23999,-0.23996l0.23999,-0.239952l0,-0.23996l0,-0.719872l0.71996,-0.479919l0.239989,0l0.47998,-0.479904l0.23998,-0.23996l0.23999,-0.719872l0,-0.23996l0,-0.479912l-0.23999,-0.479919l-0.47997,-0.719872l4.799761,-1.919662l0.479979,0.239967l0.719961,0l0.23999,0l0.23999,-0.239967l-0.47998,-0.239944l-0.479971,-0.719872l-0.959959,-1.439751l-0.71996,-1.679703l-0.47998,-0.479904l-0.23999,-1.199791l-1.43993,-1.439743l-2.879849,-2.879486l-0.95996,-0.239944l-0.23999,-0.719879l-1.67991,-1.919647l-2.1599,-2.159622l-0.95995,-0.719872l-0.71997,-0.719872l-0.71996,-0.479919l-0.95996,-0.479904l-1.67991,-0.959831l-0.95996,-0.479912l-1.19994,0.479912l-0.23999,-0.23996l0,-0.239952l0,-0.959831l-0.47997,-1.199791l-0.23999,-1.439735l0.71996,0.479904l0.71997,1.439751l0.71996,0.479912l0.71997,0.479919l1.19994,0.719872l3.59982,1.919647l0.71997,0.479919l2.39988,1.679703l0.71997,0.959831l2.15989,2.639526l1.43993,1.439743l0.47998,0.479912l1.43993,1.199791l0.71996,0.719864l0.71997,1.199791l0.959949,1.439743l1.199942,1.439735l1.19994,0.719887l0.719969,0.479904l0.47998,0.479912l0,0.479919l-0.959959,1.439743l0.479979,0.479919l0.719961,0.239952l0.47998,0.23996l2.159899,0.23996l0.239981,0l0,0.239944l0.23999,0.479919l0,0.959831l0.23999,0.719872l-0.47998,3.119438l-0.239981,2.879494l0.719961,1.199776l0,0.479927l0.239988,1.679695l0,1.919655l0,0.959839l0,0.239944l-0.959949,1.199799l-0.719969,0.479904l-3.839811,2.159622l-1.19994,0.239944l-1.199949,0.479919l-0.479971,0l-0.239989,0.479919l-0.719971,0.479919l-7.91961,5.279053l-1.91991,1.439743l0,0.23996l-0.71996,0.239944l-0.47998,0.23996l-1.43993,0.23996l-1.67992,0.23996l-1.43992,0.719879l-1.19995,0.239944l-1.9199,0.959839l0.95995,51.35083l2.39988,-0.479919l3.83982,-0.479904l2.15989,-0.479919l0.47998,0.479919l2.63987,-0.23996l0.47998,0l0.71996,0l1.919909,-0.23996l1.19994,0l1.67992,-0.959824l1.919901,-0.479919l6.239698,-1.919647l1.67992,-0.479919l1.43993,-0.23996l5.75972,-1.199783l3.839809,-0.959824l5.51973,-0.959839l1.199944,-0.23996l1.919907,-0.719864l0,-0.23996l0.479973,-0.23996l0.47998,-0.479919l0,-0.479904l-0.47998,-1.919662l-0.719959,-2.159607l-0.23999,-0.719879l-0.23999,-0.23996l-0.23999,0l-0.719963,-0.479919l-1.43993,-1.199768l-1.679916,-1.679703l-0.23999,-0.479919l0,-0.719879l0.23999,0l0.479977,-0.479904l1.19994,-0.719864l0.719963,-0.479919l2.159901,-0.719879l0.959949,-0.479904l1.67992,-1.199799l1.43993,-0.959824l2.159889,-0.959839l2.639877,-1.439728l5.759724,-2.399582l1.19994,-0.479919l2.159889,-0.719864l2.879856,-0.959824l0,-0.479919l0,-0.23996l0,-0.23996l0.23999,0l0.23999,-0.239944l0.479973,-0.23996l0.23999,0l0.23999,0l0.719971,0l0.719955,0l2.399879,0.719864l0.959961,0.23996l7.199654,2.399567l1.679909,0.23996l5.279747,0.23996l1.919907,0.23996l1.199936,0.23996l2.159904,0.23996l0.479973,-0.23996l-0.959953,-0.719879l-0.23999,-0.23996l0,-0.23996l0.23999,-0.239944l8.39959,-1.199783l1.199936,-0.23996l1.679924,-0.479919l0.47998,0l0.47998,0l0.479965,0l0.719971,0l0.959953,0.479919l2.399879,1.199783l2.87986,1.679703l0.47998,0.479904l1.199936,1.199799l0.959953,1.919662l0.47998,0.719864l0,0.239944l0,0.23996l0,0.479919l0,0.719879l-0.23999,0.23996l-0.23999,0.719864l-0.239983,0.23996l-0.47998,0.479919l-0.47998,0.23996l-0.23999,0l-0.479965,0.239944l-0.959961,0l-4.319778,0.959824l-2.159904,0.479919l-0.23999,0.23996l0,0.479919l0.23999,0.959824l0,0.479919l2.87986,3.119431l1.439934,1.439758l0.959946,0.959824l1.439934,1.199783l0.959961,0.959824l0.479965,0.479919l0.959961,0.479919l1.199944,1.199783l0.959946,0.479919l1.199944,0.23996l1.199936,0.479904l0.959961,0l0.959953,0l0.47998,0l0.479965,-0.23996l1.919914,-0.479904l2.87986,-0.719879l0.959946,-0.479919l0.47998,0l0.47998,-0.239944l0.959953,-0.23996l2.639862,-0.479919l0.23999,0l1.919922,-0.719879l5.279739,-1.919647l1.439926,-0.719879l2.399872,-0.239944l0.47998,0l0.23999,0.239944l0,0.719879l0.959961,0l0.23999,-0.479919l4.079788,0.959824l0.959961,0.479919l2.639862,1.439743l0.959961,0.719879l0.23999,0.479904l0.479965,0.479919l0.959961,0.719879l0.959961,0.719864l1.679916,1.439743l2.159882,1.919662l1.679932,1.439728l0.479965,0.479919l0.719971,0.719879l0.719955,0.959824l1.199951,0.959839l3.359833,2.879471l1.439926,1.439758l0.47998,0.239944l1.439926,0.719879l0.719971,0.239944l0.959961,0.239975l3.119843,0.719864l0.719971,0l0.959946,0.23996l2.159897,0.23996l2.639877,0.239944l4.559769,0.959839l1.679916,0.23996l0.47998,0l1.679916,0.23996l3.599823,-0.719879l0.959961,0l4.079803,-0.23996l1.919891,0l5.039764,0.23996l0.23999,0l0.719955,-0.23996l0.23999,-0.23996l0,-0.23996l0,-0.239944l-0.959946,-0.23996l0,-0.23996l0,-0.23996l0.479965,-0.239944l0.47998,-0.479935l0.47998,0l1.199936,-0.479904l1.199951,-0.23996l0.47998,0l0.959946,0l1.679916,-0.23996l0.959946,0l0.959961,0l0.959961,-0.479904l2.399872,0.23996l4.799774,0.239944l4.559769,0.959824l0.47998,0.239975l0,-0.239975l0.23999,-0.239944l0,-0.23996l0.23999,-0.479919l0,-0.239944l-0.719971,-0.959839l0,-0.23996l-0.23999,-0.23996l0,-0.479904l-0.479965,-0.479919l0,-0.23996l0.23999,0l1.439926,0l1.199936,0.23996l2.879868,0.719879l0.239975,0l0.47998,0.239944l0.23999,0.23996l0.47998,0.479919l0.239975,0.23996l0.23999,0l0,0.23996l-0.23999,0l-0.719955,0.479904l0.23999,0.23996l-1.199936,0.23996l-0.23999,0.23996l-0.23999,0.239944l0,0.239975l3.359833,0.479904l0.479965,-0.239944l1.439941,0.479904l7.439636,2.639526l1.679916,0.479919l4.799759,1.439743l0.959961,-0.23996l-0.719971,-0.719864l-0.23999,-0.23996l0,-0.23996l0,-0.23996l0,-0.479919l0.47998,-0.479904l0.959961,-0.719879l0.23999,-0.23996l0.719955,-0.23996l0.47998,-0.239944l0.959961,-0.23996l0.239975,0l0.23999,0l0.23999,0.23996l0,0.239944l-0.23999,0l-1.199936,0.719879l-0.47998,0.479919l-0.23999,0.23996l0,0.239944l0.23999,0.23996l0.719971,-0.23996l0.959946,0l0.23999,0.23996l-0.23999,0.23996l-0.479965,0.23996l-1.679916,0.23996l-0.23999,0l-0.23999,0.23996l0,0.23996l0.23999,0.239944l3.839798,0.23996l4.559784,0.479904l0.719971,0l0.959961,0.23996l0.71994,0.23996l3.119873,0.959839l3.359833,1.199783l5.039734,2.159607l4.319794,1.919662l0.23999,0.23996l0.959961,0l4.799774,1.199783l1.199921,0.23996l2.879883,0.959824l1.919891,0.959824l0.719971,0.23996l0.719971,0.23996l1.199921,0.479919l2.159912,0.719864l2.639862,0.719879l8.639587,2.399567l1.919891,0.479919l0.959961,0.23996l2.639862,0.479904l1.919922,0.23996l2.159882,0.23996l2.399902,0l2.399872,0.23996l0.719971,0l5.039734,-0.479919l2.639893,0l2.159882,0.23996l0.959961,0l1.919922,-0.23996l1.439911,0.479919l0.23999,-0.23996l0.959961,-0.719864l0.23999,-0.23996l0.23999,0l0.47998,-0.23996l0.47995,-0.23996l3.359833,-0.479919l4.799774,-0.23996l0.719971,0l6.239685,0.479919l0.719971,0l2.639893,-0.23996l3.839813,-0.23996l1.919891,0l1.439911,-0.239944l0.47998,0l0.719971,-0.23996l1.919922,-0.479919l1.439911,-0.239944l0.719971,-0.23996l4.799774,0.719864l0.719971,0l0.23999,0l0.23996,0l0.23999,-0.479904l1.199951,-2.879501l0.959961,-2.399567l0.959961,-2.639526l0.95993,-3.359406l-0.71994,-0.719864l-0.959961,-0.719879l-0.23999,-0.479919l-1.919922,-2.159607l-0.23999,-0.479919l-0.23999,-0.239944l0,-0.23996l0.23999,-0.719879l-1.679901,-2.639526l-6.719666,-7.918594l-0.47998,0l-2.639893,0.959839l-1.199921,-1.919662l-1.919891,-2.879486l-0.47998,-0.719879l-1.199951,-0.959808l-0.959961,-0.959839l-0.23999,0l-0.47998,-0.23996l-0.23999,0l-2.879852,0.479919l0,-0.719879l0,-0.479904l0.23999,-0.23996l0.47998,-0.719879l0.23999,-0.23996l1.199951,-0.719864l0,-0.23996l0,-0.479919l0,-0.479904l0,-0.23996l-0.47998,-0.23996l-1.679932,-0.959824l-0.23999,-0.23996l-0.23999,-0.23996l-0.959961,-0.719864l-0.95993,-0.23996l-0.719971,-1.199799l-0.47998,-0.719864l-2.399872,-2.159607l-1.679932,-1.919662l-1.199921,-2.159607l-1.199951,-1.439758l-1.679932,-1.679703l-0.23999,-0.23996l-0.23999,-0.239944l-1.439911,-0.479919l0.47998,-0.479904l0.95993,-0.719879l0.719971,0l0.23999,-0.23996l0.719971,0l0.47998,0.23996l0.23999,0.959839l0.23999,0.239944l0,0.23996l0.23999,0.23996l0.23999,0l0.47995,0.239944l1.199951,0.23996l0.47998,0.239975l0.23999,0.23996l0.47998,0.479904l0.23999,0l0.47998,0.23996l0.95993,0l0.23999,0l0.47998,-0.23996l0.23999,-0.23996l1.199951,-0.719879l0.23999,-0.23996l0.23999,0l0.23996,-0.239944l0.959961,0l1.439941,-0.23996l1.919891,-0.479904l1.439941,-0.23996l0.719971,-0.479919l1.679932,-1.679703l0.95993,-0.479919l2.159882,0.719879l1.199951,-0.719879l1.919922,-1.439728l0.719971,-0.23996l0.23999,0l0.95993,0l0.47998,0l1.199951,0.479904l0.47998,0.23996l0.959961,0.23996l2.879852,0.719864l0.47995,0.23996l1.439941,1.199783l0.959961,0.959839l0.23999,0.479919l0,0.239944l0,0.23996l0,0.479904l0,0.23996l0,0.239975l0.47998,0.23996l0.23999,-0.23996l0.23999,-0.479935l0,-0.719864l-0.23999,-0.479904l-0.47998,-0.719879l-0.719971,-1.199783l-1.199951,-0.719879l-0.47998,-0.479904l-0.719971,-0.23996l-3.839783,-1.439743l-5.999725,-1.439743l-0.47998,-0.23996l-0.719971,-0.479919l-0.47995,0l-0.23999,-0.23996l-0.47998,0l-0.23999,0l-0.959961,0.479919l-2.639862,1.199783l-0.959961,0.479919l-0.23999,0.23996l-1.199921,-0.959824l1.199921,0l0.47998,-0.23996l-1.199951,-1.199799l-1.919891,0l0,-0.239944l0,-0.479919l1.919891,0l0,-0.479904l1.439941,-0.479919l3.599823,0.479919l0.47998,0.239944l0.959961,0l-0.23999,-0.959824l-1.439941,-0.479919l0.959961,-0.959824l0.23999,0l0.23999,-0.23996l0.23999,0l0.23996,0l0.959961,0.23996l0.23999,-0.23996l0.23999,-0.23996l0.719971,-1.439728l0.47998,-0.719894l0.23999,-0.239944l0.959961,-0.23996l0.47995,-0.479904l0,-0.23996l0,-0.23996l0,-0.719879l0,-0.719864l0.23999,-0.23996l0.47998,-0.23996l1.199951,0l1.679932,0l0.47998,-0.719879l0,-0.23996l0.23996,0l0.47998,-0.239944l0.47998,-0.23996l0.47998,0l0.719971,0l1.199921,0l1.439941,0.23996l0.719971,0l0.719971,0l0.95993,0.479904l0.959961,0.23996l0.23999,0.479919l0.23999,0.23996l0.47998,0.23996l2.159882,0l0.959961,0.239944l0.959961,-0.239944l0.71994,-0.23996l2.399902,-0.23996l0.47998,0l0.959961,-0.479919l10.079498,0.23996l2.399872,-0.23996l3.119873,-0.23996l1.439911,0l0.719971,0l0.959961,0.23996l3.599823,0.23996l9.359528,0.479919l1.439941,-0.23996l1.199921,0.23996l0.719971,0.23996l0.719971,0.239944l1.439941,0.23996l2.639862,0.23996l1.439941,0.23996l2.159882,0l1.199951,0.23996l2.399872,0.479919l0.47998,0l0.959961,0.479904l2.159882,1.199799l1.679932,1.199768l0.47998,0.479919l0,0.23996l-7.199677,13.197647l-10.079498,18.71666l-0.23999,0.719864l-1.199921,2.639542l-2.159912,4.319229l-1.199921,1.919647l-0.23999,0.479919l0,0.719864l0,0.23996l0.23999,0.23996l0.71994,0.479919l0.959961,0.959824l3.839813,1.919662l-0.959961,0.959824l-2.399872,-1.199783l-1.679932,-0.479904l-2.399872,-0.959839l-0.719971,0.479904l-0.23999,0.719879l-0.23999,0.479919l0.23999,0.719864l1.199951,0.959839l0.23999,0.23996l0.23999,0.239944l0.23999,0.719879l0.23999,0.479919l0.23999,0.959824l-0.23999,0.239944l-0.719971,0.479919l-0.47998,0.23996l0,1.439743l9.599548,5.758972l1.919891,0.959824l6.239685,3.359406l6.479706,3.119446l1.439911,0.479919l1.919922,0.959824l0.95993,0.479919l1.199951,0.479919l0.719971,0.239944l2.879852,1.679703l0.719971,0l1.199951,0.959824l0.719971,0.479919l0.47998,0.23996l0.71994,0.23996l0.719971,0.479919l0.23999,0l0.47998,0l2.159882,0.239944l0.719971,0l1.919922,0.719864l0.47995,0.23996l0.47998,0.23996l5.039764,3.599365l3.599823,2.399567l3.359833,2.639542l1.919922,1.439728l0.719971,0.479919l0.95993,0.959824l2.399872,2.159622l1.199951,0.959824l6.719696,4.799149l2.159882,1.199783l1.199951,0.719879l0.71994,0.239944l0.719971,0.23996l1.199951,0.23996l5.519714,0l1.919922,0.479919l0.47998,0l0.719971,0l0.47998,0l1.439911,0l3.359833,0.239944l2.639862,0l0.47998,0l0.47998,0l1.679932,0.479919l1.199951,0.23996l3.599792,0.719879l1.919922,0.479919l2.879883,0.719849l0.47998,-0.23996l1.19989,0l1.199951,0l1.199951,0.23996l1.439941,0l0.719971,0l0.23999,-0.479919l0.23999,-0.479889l3.839783,-2.159622l1.199951,-0.959824l0.959961,-0.959839l0.959961,0.23996l1.679932,0.719879l0.23999,0l0.47998,0.479904l0.239929,0.23996l0.23999,0l-0.23999,0.479919l-0.9599,1.679703l-2.159912,2.639526l-2.639893,3.599365l-3.599792,4.079254l-1.919922,1.919678l-0.959961,1.199768l0,0.23996l0,0.479919l0.47998,0.23996l0.47998,0.23996l0.23999,0l0.47998,0.23996l1.439941,0.479889l0.47998,0l0.959961,0.479919l1.679871,0.479919l0.23999,0l0.719971,0l0.23999,0l1.439941,0l1.199951,-0.23996l0.719971,-0.23996l0.719971,-0.719849l0.47998,-0.479919l0.239929,-0.479919l0.23999,-0.719879l0,-1.679688l-0.23999,-4.079285l-0.239929,-0.719879l3.119812,-3.839294l2.879883,-3.599365l1.679871,-1.679703l3.839844,-3.35939l7.439636,-6.958771l9.599548,-8.878418l7.679626,-7.198715l3.839783,-3.59935l2.879883,-1.919662l3.839783,-2.399567l1.199951,-0.23996l0.47998,-0.23996l0.47998,-0.479919l0.47998,-0.239944l5.039734,-2.159622l1.199951,-0.23996l2.879883,-0.959824l1.439941,-0.479919l3.359802,-0.23996l1.439941,0l1.199951,-0.239944l1.439941,0l2.399841,0l1.439941,0l2.399902,0l5.999695,0.239944l6.239685,0.479919l1.919922,0.23996l0.47998,1.439743l1.439941,0l3.839783,0.23996l0.47998,0l0.23999,0l0.47998,-0.479919l3.599854,0.23996l3.359802,0.23996l0.47998,0.479904l1.679932,0l4.799744,0.479919l1.439941,-0.479919l0.47998,-0.23996l0.719971,0l5.999695,0.719879l24.238831,2.399582l2.399841,0.479904l3.839844,0l3.119812,0.23996l8.879578,0.719879l4.559814,0.719864l8.639587,0.959824l2.879822,0.479919l5.519714,0.959824l4.079834,0.959839l6.959656,1.679688l3.359863,0.959839l3.119812,0.959824l5.519714,1.679703l1.919922,0.719864l1.919922,0.479919l4.799744,1.199783l4.079834,1.199799l4.319763,2.159607l0.959961,0.479919l0.719971,0.239944l0.719971,0.23996l0.719971,0.23996l0.719971,0l3.839783,1.199783l1.439941,0.23996l1.919922,0.23996l0.9599,0l1.199951,0l1.199951,0l1.439941,0l1.199951,0l0.959961,-0.23996l1.439941,-0.23996l0.71991,-0.239944l1.439941,-0.479919l5.999695,0.23996l3.359863,0.479904l2.399902,0l3.599792,0l4.319824,-0.479904l6.479675,-0.479919l6.719666,-0.719879l4.799744,-0.719864l4.799805,-0.479904l2.879822,0.479904l0.47998,0l0,0.23996l0,0.23996l-1.439941,4.559174l-0.9599,2.879501l-0.47998,1.919647l0,0.479919l0.23999,0l0.23999,0.479904l0.479919,0.23996l1.679932,0.479919l1.199951,-0.719879l0.23999,-0.479904l1.679932,-5.998932l0.959961,-2.639526l0.23999,-0.23996l0.23999,-0.23996l0.479919,-0.23996l0.959961,-0.479904l0.47998,0l4.559814,-0.719879l0.959961,0l0.47998,-0.239944l0.719971,-0.23996l0.479919,-0.239975l3.599854,-1.919647l0.959961,-0.479919l0.23999,0l1.679932,-0.23996l0.71991,-0.239944l1.199951,0l2.879883,-0.23996l5.519714,-0.23996l0.959961,-0.23996l2.639893,0l1.199951,-0.23996l0.47998,0l0.23999,-0.23996l0.479919,-0.23996l0.47998,-0.239944l2.399902,-1.679703l0.719971,-0.23996l0.47998,-0.23996l5.039734,-1.199783l4.079834,-0.959824l0.719971,0l0.23999,0l0.479919,0l0.47998,0l0.23999,0.239944l0.23999,0l0,0.23996l0.47998,3.359406l0,1.439743l-0.47998,2.399582l0.23999,2.399567l0.23999,1.199783l0,1.679703l0,0.959824l0.23999,0.959824l0.959961,2.399582l0.47998,1.679688l1.679932,5.279068l0.719971,3.119446l0.719971,2.879471l1.679871,5.519043l0.47998,1.919647l0.23999,0.719879l0.23999,0.719849l0.23999,0.23996l0.23999,0.479919l0.23999,0.23996l0.23999,0l0.47998,0.23996l4.319763,0.959839l9.599548,1.439728l6.959656,0.959839l0.23999,0l0.47998,0.23996l0.719971,0.23996l0.23999,0.23996l0.47998,0.239929l0.719971,0.719879l1.919922,2.399597l2.159851,2.879456l0.23999,0l0.23999,0.23996l0.23999,0.23996l0.959961,0.23996l0.23999,0l0.47998,0.23996l0.719971,0l1.439941,1.919647l1.199951,-0.23996l1.439941,0l0.479919,0l0.47998,-0.23996l0.47998,-0.239929l0.23999,-0.479919l0,-1.199799l0,-0.23996l0.23999,0l0.23999,-0.23996l0.719971,0l4.559753,-0.479889l0.719971,0l0.47998,0.23996l0.47998,0l0.23999,0.239929l0.47998,0.23996l0.23999,0.23996l0,0.23996l0,1.919647l0.23999,0.479919l0,0.479919l0.23999,0.719879l0.47998,0.23996l0.23999,0.23996l0.959961,0.719879l0.23999,0.239929l0.47998,0l0.47998,0.23996l2.639832,0.479919l4.079834,0.959839l0.47998,0l0.959961,0.23996l2.399841,-0.23996l0.959961,0l0.47998,0l0.47998,0l4.079773,0.959839l0.47998,0l0.47998,0l0.719971,-0.23996l0.47998,-0.23996l0.47998,-0.479919l0.47998,0l0.47998,0l-0.23999,1.199768l0.23999,0l0,0.23999l0.23999,0l0.47998,0l0.959961,0.23996l0.47998,-0.23996l0.47998,0l0,-0.23999l0,-0.23996l0,-0.239929l-0.47998,-0.23996l-0.23999,-0.23996l-0.47998,-0.479919l-1.199951,-0.479919l-0.47998,-0.23996l-0.23999,-0.23996l-0.23999,-1.439728l-0.23999,-0.23996l0,-0.479919l0.23999,-0.23996l0.23999,-0.479919l1.199951,-1.679688l0.23999,-0.23996l0.23999,-0.719879l0.47998,-0.719879l0.959961,-2.159607l0.47998,-0.719849l0.47998,-0.71991l0.23999,-0.719849l0,-0.719879l0.23999,-0.959839l1.19989,-2.879456l0.47998,-0.959839l1.919922,-2.879486l0.23999,-0.23996l0.23999,-0.959839l0.719971,-1.679688l0.719971,-1.439758l0,-0.239929l0,-0.23996l0,-0.47995l-0.23999,-0.239929l-0.719971,-0.719879l-1.679932,-1.439728l-5.039734,-2.879486l-1.439941,-1.199799l-0.23999,-0.479904l0,-0.479919l0.47998,-1.679703l0.959961,-1.919662l0.23999,-0.959839l0.23999,-0.959824l0,-3.59935l0.23999,-0.23996l0.23999,0l1.919861,-0.479919l0.23999,0l0.23999,-0.23996l0.47998,-0.479904l0.47998,-0.959824l1.439941,-1.919662l0.959961,-0.959839l2.639893,-2.159607l3.839783,-3.839325l0.47998,-0.479904l0.23999,-0.719864l0.719971,-1.679703l0.23999,-0.959839l-0.23999,-0.959824l-0.23999,-1.199783l-0.23999,-0.719879l-0.47998,-0.959824l0.959961,-0.479919l0.23999,0l0.23999,0l0.47998,0.23996l0.23999,0l0.23999,1.199783l0.23999,0.23996l0.23999,0.23996l0.47998,0.719879l0.47998,0.239944l0.23999,0l0,0.23996l0,0.959824l0.23999,0l0.23999,0.23996l0.71991,0l0.23999,-0.23996l0.23999,-0.479919l0.23999,-0.239944l0.47998,-0.23996l0.23999,0l0.719971,0.23996l1.199951,0.239944l1.199951,0.23996l0.719971,0l0.47998,0l0.47998,0l0.47998,-0.23996l0.23999,-0.479904l0,-0.23996l0,-0.479904l0.23999,-0.23996l0.239929,-0.23996l0.23999,0l0.23999,0l0.23999,0l0.47998,0l1.679932,0l0.47998,0l0.47998,0l0.47998,-0.23996l0.23999,-0.23996l1.439941,-0.479904l0.47998,-0.959839l1.679871,-1.439743l0.23999,-0.239944l0.959961,-0.479919l0.959961,0l0.47998,-0.479919l0.719971,-0.719864l0.239929,-0.23996l0.480042,-0.479919l1.199951,-0.959824l0.479919,0.239944l1.919922,-0.719864l1.440002,-0.23996l0.719849,-0.23996l0.480042,0l1.200012,-0.23996l1.19989,-0.23996l0.959961,-0.239944l1.199951,0l0.959961,-0.23996l0.239929,0.719864l0.959961,-0.479904l0.23999,-0.23996l0.240051,0l0.23999,0l0.71991,0.479904l0.719971,0l0.23999,0l0.23999,0l0.9599,-0.239944l0.480042,0l0.23999,0l0.47998,0l0.479919,0.239944l0.23999,0.23996l0.23999,0.719879l1.19989,1.439743l0.480042,0.479919l0.47998,0.23996l0.23999,0.479904l0.9599,0.23996l3.839966,2.159607l0.719849,0.479919l0.47998,0.719879l0.23999,0.719864l0.23999,0.23996l0,0.23996l-0.719971,0.479919l0,0.23996l0.23999,0.239944l0.23999,0l0.47998,0l1.439941,0.23996l0.47998,0.23996l0.23999,0l0.47998,0l0.47998,-0.479919l0.23999,0l0.719971,0l0.479858,0l0.240112,0l0.719971,-0.239944l0.47998,0l0.23999,0l0.479858,0.479904l0.23999,0l1.680054,0.479904l2.39978,-0.239944l1.440063,0.719864l0.719849,0.23996l0.47998,0l1.199951,0l0.959961,0l1.919922,0.23996l3.359741,0.23996l0,0.23996l0.23999,0.23996l0.240112,0.239944l0.23999,0l0.719971,0l0.479858,0.23996l0.23999,0l0,0.479919l0.23999,0.23996l0.23999,0l0.480103,0l0.23999,0l0.23999,-0.23996l0.23999,0l0.239868,-0.479919l0,-0.23996l0,-0.239944l-0.479858,-0.23996l-0.23999,-0.23996l-0.47998,-0.23996l-0.480103,0l-0.959839,-0.23996l-0.47998,-0.23996l-0.720093,-0.23996l-0.719849,-0.23996l-1.919922,-1.199768l-0.47998,-0.479919l-0.47998,-0.479919l-0.47998,-0.719864l-0.47998,-0.23996l-0.23999,-1.199783l-0.959961,-0.959824l0.719971,-1.679703l-0.23999,0l-0.23999,-0.23996l-0.23999,0l-0.23999,0.23996l-0.719849,0.239944l-0.480103,0.479919l-0.47998,0l-0.23999,0.23996l-0.47998,0l-0.479858,0l-0.23999,0l-0.480103,0l-0.719971,-0.23996l-1.199829,0l-2.399902,0.23996l-0.480103,0l-0.719849,0l-0.47998,-0.23996l-0.23999,0l-0.23999,-0.23996l-2.159912,-1.199783l-1.439941,-0.719879l-1.679932,-0.719864l-1.199951,-0.959839l-0.959961,-0.959824l-0.23999,0l-0.23999,-0.239944l-0.23999,0l-0.719971,-0.23996l-0.239868,0l-0.47998,-0.479919l-0.480042,-0.479919l-0.23999,-0.23996l-0.480042,-0.239944l-0.23999,0l-0.479858,-0.23996l-0.240051,0l-2.399902,-0.23996l-1.43988,-0.23996l-1.919922,-0.23996l-3.599854,0.23996l-0.71991,-0.23996l-0.960022,0.23996l-0.71991,0l-2.879883,-0.719879l-2.399902,-1.199768l-2.879883,-1.439743l-0.9599,-0.479919l-0.960022,0.23996l-0.9599,-1.439758l-1.199951,0l-1.199951,-0.479904l-0.47998,0l-1.679871,0.479904l-0.23999,-0.239944l-0.959961,0l-0.959961,-0.719864l-1.679932,-0.23996l-1.919922,0.479904l-0.71991,0l-0.719971,0.23996l-1.439941,0.719864l-1.919922,1.199799l-2.159912,1.679703l-0.47998,0.479904l-1.19989,1.439743l-0.719971,0.959824l-0.719971,0.719879l-0.719971,0l-0.959961,-0.479919l-0.23999,-0.479904l0.959961,-1.679703l4.559753,-5.519012l0.47998,-0.719879l0.47998,-0.23996l0.23999,-0.239944l0,-0.23996l0,-0.23996l0,-0.719879l0,-0.23996l0.47998,-0.479904l0.959961,-0.719864l0,-0.479935l2.159912,0.239975l-0.23999,0l-0.23999,0.479904l-0.23999,0l-0.719971,0.23996l-0.23999,0.23996l-0.23999,0.23996l0,0.239944l0.23999,0.23996l0.47998,0.23996l0.47998,0l0.23999,0l0.719971,-0.23996l0.47998,0l0.23999,-0.23996l0.479919,-0.239944l0.47998,-0.23996l0.23999,-0.23996l0.23999,-0.23996l0.23999,-0.239944l0,-0.479935l-0.719971,-1.199768l1.199951,0l0.959961,0.959824l0,0.479919l2.399902,-1.199799l0.959961,-0.239944l0.47998,0l0.23999,-0.23996l1.43988,0l0.23999,0l0.959961,0.23996l0.47998,0l0.23999,0l0,-0.23996l-0.23999,-0.23996l-0.47998,-0.23996l-0.23999,0l0,-0.23996l0,-0.479919l0,-0.239944l-0.23999,-0.23996l-0.23999,-0.23996l-0.47998,0l-1.19989,-0.23996l-0.47998,0l-1.199951,-0.959824l-0.719971,-0.719879l0.23999,-0.239944l0.47998,0.239944l0.719971,0.23996l0.23999,0l0.47998,0l0,-0.23996l-0.23999,-0.479904l0.23999,-0.479919l-0.23999,-0.23996l-0.23999,0l-0.23999,-0.23996l-1.199951,-0.23996l-1.439941,-0.239944l0.23999,-0.479919l0.47998,-0.23996l0.47998,-0.23996l0.47998,-0.719864l0.23999,0l0.23999,-0.23996l0.23999,-1.199783l0,-0.23996l-0.23999,-0.23996l-0.47998,-0.479904l-0.47998,0l-1.679932,-0.959839l-0.23999,-0.23996l-0.47998,-0.23996l-0.719971,-0.719864l-1.199951,-0.719864l-0.47998,-0.23996l-0.239929,0l-1.199951,0.23996l-0.719971,0.23996l-0.719971,0l-0.23999,0l-0.719971,-0.23996l-0.47998,-0.23996l-0.23999,-0.23996l-0.959961,-0.719879l-0.47998,-0.239944l0,-0.23996l0,-0.23996l1.439941,-0.719879l0.47998,0l0.959961,-0.23996l0.47998,0l0.719971,0l2.159851,-0.719864l1.919922,-0.23996l0.23999,-0.23996l0.47998,-0.23996l0.23999,-0.23996l0.23999,0l0.47998,-0.239944l0.719971,0l0.47998,0.239944l0.47998,0.23996l0.47998,0l0.47998,0l0.959961,0.23996l0.9599,0l0.23999,0l0.23999,-0.23996l0.23999,-0.23996l0,-0.239944l-0.47998,0l-0.47998,-0.23996l-0.23999,-0.479919l-0.239929,-0.959824l-0.23999,-0.23996l-0.47998,-0.23996l-0.47998,0l-0.23999,0.23996l-0.23999,0.23996l0.23999,0.479919l0.47998,0.719864l-0.47998,0l-0.23999,0l-0.719971,-0.479904l-0.47998,-1.439758l-0.23999,-0.239944l-0.959961,0l-0.47998,0l0,-0.23996l0.23999,-0.479919l1.439941,-0.479919l0.719971,-0.23996l0,-0.239944l0,-0.23996l-0.23999,0l-0.719971,-0.23996l-2.879883,0.23996l-1.439941,-0.719864l-0.23999,-0.23996l-0.239929,0l-0.23999,0.23996l-0.959961,0l-1.439941,0l-0.23999,0.239944l0,0.23996l0.23999,0.23996l0.23999,0.479904l-0.23999,0.479919l-0.23999,0.23996l-0.23999,0l-0.959961,-0.23996l-0.47998,0.23996l-0.719971,0.719879l-0.719971,0.239944l-0.719971,0.479919l-0.23999,0l-0.71991,-0.23996l-0.719971,-0.479904l-0.23999,-0.23996l0,-0.23996l0.23999,-0.23996l0.23999,-0.719879l1.919861,-1.199768l0.47998,-0.479919l0.959961,-0.479919l1.919922,-0.959824l1.199951,-0.479919l3.359802,-0.719879l4.799805,-0.719864l12.47937,-0.959824l4.559814,-0.719879l2.879761,-0.719864l3.119934,-0.479919l7.919556,-2.879486l4.079834,-1.439743l0.23999,0.23996l9.599487,-0.479919l3.119873,0l1.199951,0.23996l0.47998,0l2.399902,0.719879l13.199341,2.639526l-2.639771,333.060562l-0.240112,0l-0.959961,0.23996l-2.639771,-0.719879l-0.959961,0.23996l-0.960083,-0.23996l-0.959839,-0.23996l-0.23999,0l-0.480103,0.23996l-0.959839,-0.479919l0.47998,-0.719879l1.679932,0.23996l1.199829,0l2.880005,0.719879l4.799683,0l0.23999,0l0,-0.23996l0.23999,0l-0.47998,-0.719879l-2.39978,0.23996l-5.039795,-0.959839l-5.759766,-0.719849l-4.319824,-0.719879l-1.67981,-0.479919l-1.679932,-0.23996l-0.719971,-0.23996l-11.999512,-0.959808l-8.399536,-0.959839l-0.960022,-0.479919l-1.919861,-0.719849l-6.959595,-2.639557l-1.200012,-1.439728l-1.679932,2.639526l-3.119873,1.439758l-0.479919,0l-0.23999,0.239929l-0.23999,0l0,0.23996l0,0.23996l0,0.23996l1.19989,0.479919l0.719971,-0.23996l0.240051,0.23996l0,0.959839l0.23999,1.439728l0.47998,0.719879l0.71991,0.23996l0,-0.719879l-0.23999,0l0,-0.23996l0,-0.23996l0.23999,0l0.23999,-0.23996l0.47998,0l0.480042,0l0.479858,0l0.240051,0l1.919861,1.679718l1.440002,2.159607l0.9599,1.919647l0.23999,1.199799l-0.23999,0.719879l-0.71991,1.919647l0,0.23996l-0.47998,0l-0.23999,0l-0.23999,0l-0.23999,-0.23996l0,-0.23996l-2.159912,-3.839325l-1.919922,-3.359406l-0.23999,0l-0.23999,0l-0.23999,0l0,0.23996l1.440002,3.599365l1.43988,2.399567l0.47998,1.439758l0.23999,0.23996l-0.23999,0.239929l0,0.23999l-0.23999,0.23996l-0.23999,0l-0.47998,0l-1.679932,-0.23996l-5.519714,-1.199799l-6.479675,-1.439758l-2.879883,0l-2.879822,-0.479889l-1.199951,0l-3.119873,-1.199799l-1.199951,-0.719879l-2.399841,-1.199768l-1.199951,-0.719879l-0.959961,-0.959839l-0.719971,-0.959808l-0.47998,-0.719879l-0.23999,-0.479919l-0.23999,-0.959839l0.23999,0l0,-0.23996l0.23999,0l0.47998,0l0.23999,-0.239929l0.23999,0l0.23999,-0.23996l0,-0.23996l0,-0.23996l-0.23999,-0.479919l0,-0.23996l0.959961,0l0.23999,-0.479919l0.23999,-0.23996l-0.23999,-0.719849l0.719971,-0.23996l0.959961,-0.479919l0,-0.719879l0.47998,-0.23996l1.43988,-0.959839l0.47998,-0.239929l0,-0.23996l0,-0.23996l-0.47998,-0.719879l-0.23999,-0.479919l0.23999,-0.719879l0.23999,-0.479889l0.23999,-0.23996l0.47998,-0.23996l0.23999,-0.23996l0.47998,-0.23996l0.719971,0l0.959961,-0.23996l0.719971,0l0.47998,0l1.199951,0l2.159851,0.479919l1.919922,0.479919l-1.679932,-1.439758l-1.199951,-0.23996l-0.9599,0l-0.23999,0l-1.439941,0l-5.519714,0l-1.439941,0.23996l-3.359863,1.199799l-1.439941,0.23996l-1.43988,0.23996l-0.719971,0.23996l-1.199951,0l-0.47998,0l-0.47998,-0.23996l-1.439941,-0.479919l-0.23999,-0.23996l-4.079773,-0.719879l-0.23999,-0.479919l-3.839844,-0.23996l-0.47998,-0.23996l-0.23999,0l-0.23999,0l-0.23999,-0.23996l-0.23999,-0.23996l-0.23999,0l-0.479919,0l-0.47998,0.23996l-0.47998,0l-0.47998,0l-0.719971,0.479919l-0.23999,0.479919l-0.959961,0.959839l0,0.23996l-0.47998,0.719879l0,0.479889l0,0.479919l0.23999,0.959839l0,0.23996l0.959961,1.199768l0.719971,4.559204l0.719971,4.319214l0,0.719879l0.23999,1.679688l0,0.959839l0.23999,0.719879l0,0.719879l0.23999,0.479889l0.23999,0.23996l0.479919,0.23996l0,0.23996l0.23999,0.23996l0,0.23996l0,0.23996l-0.9599,1.919647l0,0.479919l0,0.479919l0.23999,0.239929l1.19989,3.119446l0.23999,0.959839l0.719971,1.679688l0.47998,0.71991l0.47998,0.719849l3.119873,3.599365l0.959961,1.199768l1.19989,2.639526l2.399902,2.639526l0.23999,0.23999l0,0.239929l0.23999,0.479919l-0.47998,4.799133l0,0.959839l0.23999,0.479919l0.23999,0.959839l2.399902,3.599365l0.23999,0.239929l0,0.23999l0,0.959839l0,0.479919l0.23999,0.239929l0.23999,0.479919l0.719971,1.199768l0.719971,0.959839l0.479919,0.719849l0.959961,0.959839l2.399902,2.159607l1.439941,0.959839l0.959961,0.479919l3.599792,1.919678l1.439941,0.959839l0.719971,0.239929l1.439941,0.23999l0.959961,0.479858l1.19989,0.23999l1.439941,0.239929l1.199951,0.23999l1.439941,0l1.679932,0.239929l2.639832,-0.239929l24.958862,-1.919678l1.919922,0l1.9198,0l2.159912,0l2.159912,0l5.279785,0.23999l3.359741,0.239929l5.759766,0.479919l7.199585,0.239929l13.679321,1.679749l0,236.099548l-1069.627774,0l0,-237.539307z"/>
  </g>
 </g>
</svg>
