<?xml version="1.0" encoding="UTF-8" standalone="no"?>
<svg
   xmlns:dc="http://purl.org/dc/elements/1.1/"
   xmlns:cc="http://creativecommons.org/ns#"
   xmlns:rdf="http://www.w3.org/1999/02/22-rdf-syntax-ns#"
   xmlns:svg="http://www.w3.org/2000/svg"
   xmlns="http://www.w3.org/2000/svg"
   xmlns:sodipodi="http://sodipodi.sourceforge.net/DTD/sodipodi-0.dtd"
   xmlns:inkscape="http://www.inkscape.org/namespaces/inkscape"
   viewBox="0 -256 1950 1950"
   id="svg3025"
   version="1.1"
   inkscape:version="0.48.3.1 r9886"
   width="100%"
   height="100%"
   sodipodi:docname="ambulance_font_awesome.svg">
  <g
     transform="matrix(1,0,0,-1,-41.220339,1444.5085)"
     id="g3027">
    <path
       d="m 640,128 q 0,53 -37.5,90.5 Q 565,256 512,256 459,256 421.5,218.5 384,181 384,128 384,75 421.5,37.5 459,0 512,0 565,0 602.5,37.5 640,75 640,128 z M 256,640 H 640 V 896 H 482 q -14,-2 -22,-9 L 265,692 q -7,-12 -9,-22 V 640 z M 1536,128 q 0,53 -37.5,90.5 Q 1461,256 1408,256 1355,256 1317.5,218.5 1280,181 1280,128 1280,75 1317.5,37.5 1355,0 1408,0 1461,0 1498.5,37.5 1536,75 1536,128 z m 128,672 v 192 q 0,14 -9,23 -9,9 -23,9 h -224 v 224 q 0,14 -9,23 -9,9 -23,9 h -192 q -14,0 -23,-9 -9,-9 -9,-23 V 1024 H 928 q -14,0 -23,-9 -9,-9 -9,-23 V 800 q 0,-14 9,-23 9,-9 23,-9 h 224 V 544 q 0,-14 9,-23 9,-9 23,-9 h 192 q 14,0 23,9 9,9 9,23 v 224 h 224 q 14,0 23,9 9,9 9,23 z m 256,544 V 192 q 0,-26 -19,-45 -19,-19 -45,-19 h -192 q 0,-106 -75,-181 -75,-75 -181,-75 -106,0 -181,75 -75,75 -75,181 H 768 q 0,-106 -75,-181 -75,-75 -181,-75 -106,0 -181,75 -75,75 -75,181 H 128 q -26,0 -45,19 -19,19 -19,45 0,26 19,45 19,19 45,19 v 416 q 0,26 13,58 13,32 32,51 l 198,198 q 19,19 51,32 32,13 58,13 h 160 v 320 q 0,26 19,45 19,19 45,19 h 1152 q 26,0 45,-19 19,-19 19,-45 z"
       id="path3029"
       inkscape:connector-curvature="0"
       style="fill:#fff" />
  </g>
</svg>
